<svg version="1.1" id="Layer_1" xmlns="http://www.w3.org/2000/svg" xmlns:xlink="http://www.w3.org/1999/xlink" x="0px" y="0px"
	 width="100%" viewBox="0 0 800 1024" enable-background="new 0 0 800 1024" xml:space="preserve">
<path fill="#000000" opacity="1.000000" stroke="none" 
	d="
M69.704193,562.628906 
	C64.852814,557.633240 60.201698,552.856995 55.436771,548.197083 
	C53.517162,546.319824 52.660610,544.246094 52.685333,541.543335 
	C52.778324,531.378296 52.853451,521.209045 52.651485,511.047089 
	C52.571918,507.043457 54.183521,505.820465 57.966156,505.863525 
	C69.797127,505.998138 81.632088,505.803192 93.462318,505.966919 
	C97.290337,506.019867 98.711403,504.832245 98.715218,500.822418 
	C98.727509,487.883881 98.874527,487.885437 112.071861,487.874237 
	C116.071564,487.870850 120.072701,487.788177 124.070480,487.871368 
	C127.093246,487.934265 128.725372,486.943939 128.686630,483.575897 
	C128.575455,473.911194 128.589874,464.243835 128.685425,454.578766 
	C128.715042,451.583282 127.495895,450.238342 124.539444,450.407532 
	C124.207680,450.426514 123.861923,450.338287 123.541557,450.399170 
	C111.124519,452.759460 102.202515,446.998901 93.512344,438.842834 
	C81.618362,427.679840 68.857323,417.434479 56.350986,406.935059 
	C53.674782,404.688293 52.611397,402.255157 52.647388,398.773071 
	C52.800686,383.942322 52.915245,369.104767 52.599968,354.279114 
	C52.488838,349.053284 54.408802,347.710144 59.281479,347.846985 
	C69.605995,348.136963 79.944252,347.937408 90.276878,347.938538 
	C92.035873,347.938721 93.794868,347.938538 97.040100,347.938538 
	C93.932068,344.686523 91.944359,342.530426 89.875717,340.454987 
	C78.699158,329.241699 67.562363,317.987549 56.267803,306.894135 
	C53.678547,304.351013 52.642124,301.676300 52.660072,298.069061 
	C52.775352,274.904572 52.774067,251.738770 52.635868,228.574448 
	C52.614140,224.931839 53.773804,222.311722 56.342846,219.796844 
	C66.941277,209.421829 77.431747,198.934723 87.842232,188.370880 
	C90.233795,185.944077 92.753510,184.799927 96.200966,184.806946 
	C136.364746,184.888840 176.528793,184.888718 216.692596,184.814804 
	C220.095490,184.808548 222.687576,185.757202 225.110657,188.217346 
	C235.869064,199.140335 246.998474,209.706696 257.525208,220.844849 
	C261.904541,225.478516 265.113983,231.217880 268.915619,236.538727 
	C269.346100,236.002411 269.727081,235.735443 269.693390,235.539886 
	C268.094818,226.256866 272.582916,220.001907 279.174988,214.049622 
	C288.316132,205.795715 296.781860,196.787827 305.427277,187.995102 
	C307.571930,185.813904 309.859772,184.820526 312.927856,184.833008 
	C333.426117,184.916428 353.925385,184.952469 374.423035,184.812958 
	C378.159027,184.787521 380.676422,186.391556 383.105713,188.861130 
	C394.899597,200.850449 407.426697,212.115646 418.557709,224.762192 
	C418.839813,225.082718 419.429138,225.132828 419.887085,225.313751 
	C422.202454,224.030182 421.604492,221.825623 421.617096,219.945938 
	C421.682892,210.113708 421.784760,200.278137 421.588165,190.449463 
	C421.509033,186.492630 422.606323,184.742477 426.896820,184.792206 
	C442.393646,184.971863 457.894196,184.907272 473.392578,184.813675 
	C476.380157,184.795639 478.402222,185.749161 479.920258,188.393799 
	C481.722290,191.533203 483.884247,194.466034 486.681427,198.680450 
	C487.050201,195.008224 487.593323,192.609985 487.457428,190.250885 
	C487.251373,186.674118 488.743469,185.655502 492.135101,185.698669 
	C503.632477,185.845032 515.135315,185.621231 526.630737,185.829926 
	C530.987915,185.909027 532.886902,184.782303 532.847961,179.968048 
	C532.749329,167.768661 532.964966,167.764313 545.001770,167.765366 
	C557.834229,167.766495 570.668884,167.908569 583.497925,167.702621 
	C587.874268,167.632355 589.291992,169.196533 589.289307,173.513702 
	C589.281677,185.734924 589.433350,185.735687 601.731812,185.735703 
	C610.564514,185.735718 619.397949,185.795624 628.229614,185.701111 
	C631.623718,185.664810 634.895447,185.634964 637.803894,190.230942 
	C637.989624,181.322006 643.561584,183.090500 648.080994,183.072235 
	C661.746521,183.016968 675.412598,183.098282 689.077942,183.029434 
	C692.247803,183.013458 694.771973,183.720306 696.974854,186.305679 
	C710.698486,202.412109 724.512878,218.442078 738.419006,234.391159 
	C740.549255,236.834396 741.389587,239.315781 741.376282,242.505371 
	C741.284424,264.503479 741.386902,286.502472 741.278137,308.500427 
	C741.261353,311.886658 741.720886,314.856964 744.628174,316.844971 
	C754.939880,323.896240 757.778320,333.667755 756.531860,345.741882 
	C755.629578,354.482361 756.222107,363.391510 756.388306,372.220917 
	C756.454468,375.733948 755.020996,376.823425 751.695557,376.959503 
	C741.309509,377.384583 741.317749,377.479614 741.318848,387.923553 
	C741.320801,406.422302 741.200439,424.922272 741.400330,443.418854 
	C741.447998,447.828400 739.959534,449.255524 735.639404,449.170197 
	C724.660400,448.953186 713.674255,449.098053 702.442932,449.098053 
	C702.467285,451.671234 704.186035,452.639221 705.378357,453.835144 
	C716.085266,464.574524 726.778748,475.328705 737.619690,485.931885 
	C740.178284,488.434418 741.458313,490.985382 741.400146,494.662292 
	C741.202454,507.158325 741.131531,519.663818 741.419434,532.156250 
	C741.524353,536.707092 740.034912,537.806213 735.678101,537.577698 
	C730.271851,537.294250 724.739929,536.837097 718.217773,538.677795 
	C723.667542,543.882751 728.190186,548.985657 733.495850,553.071899 
	C740.179626,558.219543 743.338318,564.212891 742.213196,572.759766 
	C741.566101,577.674927 741.949524,582.748352 742.121582,587.741760 
	C742.262817,591.840759 740.598877,593.508911 736.480530,593.222839 
	C734.421570,593.079895 732.181702,592.646423 729.929443,594.086792 
	C731.943665,597.935120 735.436157,600.258545 738.479309,602.920898 
	C741.081482,605.197388 742.183533,607.772034 742.132996,611.218750 
	C741.993835,620.716003 742.122070,630.216858 742.073486,639.715942 
	C742.042480,645.770386 741.677124,646.062256 735.417725,646.125549 
	C732.087097,646.159241 728.756409,646.201416 725.426392,646.271484 
	C725.132812,646.277710 724.844177,646.520264 724.080750,646.868652 
	C727.383423,651.388550 731.614868,654.822632 735.814148,658.128113 
	C740.550964,661.856812 742.710938,666.152161 742.207703,672.285400 
	C741.705017,678.411316 741.998840,684.610107 742.095642,690.774597 
	C742.148743,694.159302 740.814941,695.620789 737.337646,695.427124 
	C733.700378,695.224548 730.043030,695.381897 724.639954,695.381897 
	C729.259521,699.884766 732.609436,703.638977 736.461731,706.776245 
	C740.881409,710.375488 742.279846,714.614929 742.212097,720.253601 
	C741.931824,743.582031 742.094604,766.915649 742.065002,790.247314 
	C742.056641,796.826111 741.783447,797.065430 735.372864,797.086609 
	C731.090332,797.100769 726.807739,797.089294 720.903381,797.089294 
	C727.329041,803.535828 732.545105,809.018066 738.051514,814.191345 
	C740.950562,816.915100 742.253113,819.841736 742.162659,823.846497 
	C741.948120,833.341064 741.965820,842.846069 742.148560,852.341797 
	C742.226685,856.403381 740.767334,858.020325 736.639893,857.959717 
	C725.809814,857.800842 714.975647,857.924438 704.143066,857.925598 
	C652.479919,857.931030 600.816650,857.884583 549.153809,858.018066 
	C544.441284,858.030273 540.898438,856.769836 537.738525,853.235352 
	C534.031067,849.088440 529.842957,845.371277 525.448914,841.061279 
	C523.429932,845.648682 524.225708,849.507935 524.312805,853.204956 
	C524.407593,857.229736 523.054688,858.975647 518.911072,858.956238 
	C498.412964,858.860229 477.914215,858.893860 457.415680,858.909973 
	C454.602539,858.912170 452.338898,857.909058 450.195404,856.063171 
	C434.286530,842.363037 418.344360,828.700806 402.317230,815.139404 
	C399.662048,812.892639 398.599976,810.443970 398.615082,806.966614 
	C398.728760,780.802185 398.623566,754.636841 398.740173,728.472473 
	C398.755493,725.035706 397.800446,722.498535 395.315735,720.107605 
	C388.472504,713.522827 381.862366,706.696533 375.110382,700.015930 
	C371.103607,696.051514 369.920044,696.371521 368.311890,701.936279 
	C365.447754,711.847107 362.564484,721.755737 359.951263,731.733948 
	C359.021362,735.284485 357.269165,736.497070 353.635040,736.411438 
	C344.140900,736.187622 334.631775,736.127502 325.141663,736.422180 
	C320.929932,736.552979 317.831238,735.375732 315.096924,732.207703 
	C313.101562,729.895874 311.054626,727.452820 308.074127,725.915955 
	C307.670807,726.669861 307.313385,727.062500 307.249176,727.498413 
	C305.948120,736.330261 305.954926,736.329468 297.017456,736.327698 
	C286.714905,736.325684 276.412323,736.327271 265.846588,736.327271 
	C265.958801,738.985352 267.745728,739.902771 268.917999,741.083984 
	C280.304718,752.557922 291.697296,764.027771 303.239990,775.343994 
	C305.951019,778.001648 307.157562,780.791504 307.092194,784.595947 
	C306.903290,795.591858 306.925079,806.594116 307.066406,817.591309 
	C307.110352,821.009155 306.109009,823.589539 303.644714,826.005127 
	C293.767426,835.687500 283.979095,845.463318 274.310211,855.353577 
	C271.765076,857.957092 268.990143,859.003906 265.437775,858.997986 
	C232.106873,858.942200 198.775772,858.941101 165.444885,859.003235 
	C162.055405,859.009583 159.394363,857.879028 156.890289,855.658203 
	C141.556274,842.059265 125.819084,828.894897 110.869194,814.888733 
	C97.506271,802.369446 85.000305,788.936462 72.077644,775.945007 
	C70.264328,774.122070 69.850967,771.985107 69.856194,769.565186 
	C69.883545,756.899536 69.936287,744.232910 69.801506,731.568481 
	C69.766243,728.254395 71.078270,725.925232 73.357117,723.716003 
	C83.986382,713.411011 94.529678,703.017334 105.490921,692.276001 
	C104.103943,691.643494 103.653313,691.235168 103.290703,691.302307 
	C93.945618,693.032227 87.767059,688.319275 81.825020,681.805420 
	C73.634613,672.826904 64.792831,664.434814 56.078850,655.946777 
	C53.608765,653.540710 52.625732,651.001465 52.646843,647.572754 
	C52.772034,627.241516 52.789127,606.908691 52.648758,586.577698 
	C52.623539,582.924683 53.737164,580.247375 56.384819,577.811401 
	C60.183453,574.316528 63.771858,570.587769 67.356392,566.868652 
	C68.434311,565.750305 70.252640,564.983093 69.704193,562.628906 
M662.500000,666.976257 
	C614.018433,666.965271 565.536865,666.955078 517.055298,666.942200 
	C511.890808,666.940857 506.725464,666.979004 501.562195,666.894348 
	C498.408295,666.842651 497.040344,668.220154 497.085449,671.398499 
	C497.177612,677.894592 497.349365,684.405457 497.019196,690.886353 
	C496.778564,695.610046 498.634888,696.762512 503.118622,696.735413 
	C533.106323,696.553955 563.095520,696.625427 593.084290,696.617310 
	C609.744690,696.612793 626.405640,696.686218 643.065063,696.554932 
	C646.803162,696.525452 648.621033,697.529663 648.366028,701.622009 
	C648.086731,706.102966 648.190613,710.618225 648.335693,715.111755 
	C648.436340,718.230652 647.446960,719.533508 644.061707,719.534607 
	C621.075317,719.541809 598.081787,720.144897 575.104431,719.750000 
	C551.280945,719.340637 527.463013,719.644653 503.643799,719.427734 
	C497.133942,719.368469 497.101593,719.431091 497.094727,726.123657 
	C497.070770,749.448181 497.062592,772.772644 497.066986,796.097168 
	C497.068237,802.604614 497.097656,802.612183 503.811859,802.611084 
	C561.290283,802.601196 618.768677,802.588867 676.247070,802.574158 
	C677.746216,802.573792 679.245422,802.519409 680.744507,802.523743 
	C684.630859,802.534973 686.575989,800.639893 686.567871,796.724121 
	C686.558960,792.392700 686.605164,788.061157 686.614990,783.729675 
	C686.640747,772.367249 686.638062,772.395081 675.011780,772.397400 
	C630.361877,772.406311 585.711792,772.335449 541.062378,772.480957 
	C536.338501,772.496338 534.447571,771.186462 534.732727,766.292725 
	C535.081055,760.315002 534.812805,754.301941 534.831543,748.304260 
	C534.852295,741.662292 534.862244,741.643005 541.471008,741.642517 
	C577.790710,741.640137 614.110413,741.650818 650.430115,741.650513 
	C660.759521,741.650452 671.089417,741.567932 681.418091,741.650635 
	C684.935242,741.678833 686.642090,740.377136 686.631958,736.692749 
	C686.573303,715.367676 686.565979,694.042236 686.633057,672.717285 
	C686.646606,668.396301 684.643250,666.810364 680.492310,666.930359 
	C674.832520,667.093872 669.164490,666.973755 662.500000,666.976257 
M392.427032,211.072601 
	C387.838135,206.472580 383.171753,201.946289 378.694183,197.240341 
	C376.572845,195.010757 374.225861,194.146133 371.173676,194.160645 
	C352.846924,194.247849 334.519409,194.233627 316.192535,194.158112 
	C313.494171,194.146988 311.423950,194.977142 309.535797,196.887436 
	C300.400635,206.129700 291.227081,215.334854 281.980957,224.465912 
	C280.061218,226.361755 279.215485,228.381500 279.218872,231.086182 
	C279.272186,273.405151 279.281311,315.724274 279.198547,358.043121 
	C279.192444,361.160858 280.281372,363.343506 282.445282,365.464905 
	C291.129517,373.978333 299.755219,382.554871 308.238342,391.267975 
	C310.891479,393.993011 313.755524,395.092865 317.532074,395.065002 
	C335.191833,394.934570 352.853821,394.925018 370.513214,395.078766 
	C374.177643,395.110657 376.799103,393.854553 379.289032,391.311890 
	C387.680115,382.742859 396.125427,374.221649 404.753784,365.893250 
	C407.619354,363.127319 408.773621,360.232086 408.759674,356.246399 
	C408.635254,320.592163 407.826782,284.906708 409.087006,249.296478 
	C409.655121,233.242874 406.136292,220.817291 392.427032,211.072601 
M98.124596,332.682220 
	C136.272064,332.691071 174.419556,332.684937 212.566986,332.736725 
	C215.661148,332.740906 218.317368,332.391418 220.704529,329.958069 
	C229.918655,320.565704 239.276077,311.312134 248.684219,302.113281 
	C250.897675,299.949066 251.691711,297.596832 251.654587,294.554260 
	C251.396515,273.404358 251.233246,252.253098 251.128601,231.101822 
	C251.114441,228.239761 250.244904,226.044998 248.182999,224.022705 
	C239.144836,215.158203 230.157318,206.239761 221.292084,197.202881 
	C219.115509,194.984131 216.801727,194.171082 213.769165,194.176041 
	C175.455048,194.238663 137.140747,194.238113 98.826660,194.170471 
	C95.933929,194.165359 93.811394,195.073135 91.790741,197.128448 
	C83.032249,206.037186 74.195549,214.870911 65.271843,223.614075 
	C62.954773,225.884247 61.975445,228.323807 61.988544,231.567627 
	C62.073311,252.556717 62.057713,273.546631 61.953655,294.535675 
	C61.936852,297.924011 62.851532,300.556946 65.327759,302.973480 
	C74.268196,311.698395 83.041832,320.594086 91.896645,329.406982 
	C93.414169,330.917328 94.795448,332.712219 98.124596,332.682220 
M525.089783,390.479126 
	C527.861450,394.080048 531.464050,395.133972 536.004883,395.072113 
	C553.160156,394.838348 570.320679,394.901642 587.478210,395.018036 
	C591.069031,395.042389 593.774841,393.993408 596.319214,391.404388 
	C604.957886,382.614075 613.763306,373.986145 622.579956,365.372925 
	C624.725220,363.277191 625.861023,361.065094 625.851196,357.937469 
	C625.758545,328.452148 625.759155,298.966278 625.849915,269.480927 
	C625.860046,266.197693 624.732788,263.768311 622.463440,261.543579 
	C613.544556,252.799789 604.647339,244.032410 595.857849,235.159134 
	C593.690247,232.970917 591.354309,232.096115 588.315369,232.108780 
	C570.157898,232.184418 551.999634,232.184128 533.842407,232.078506 
	C530.770996,232.060638 528.487976,233.022156 526.345154,235.203430 
	C517.589844,244.115738 508.782745,252.980560 499.826904,261.690277 
	C497.215790,264.229614 496.248474,266.927155 496.261902,270.522308 
	C496.369476,299.341156 496.370697,328.160858 496.248474,356.979645 
	C496.233765,360.452271 497.353760,362.938110 499.776764,365.303162 
	C508.120270,373.447083 516.321899,381.736420 525.089783,390.479126 
M230.434402,710.065735 
	C227.372757,707.004883 224.232117,704.018005 221.274826,700.859436 
	C218.956238,698.383057 216.327835,697.342773 212.882507,697.352600 
	C180.911926,697.443848 148.940903,697.429443 116.970215,697.360046 
	C113.919762,697.353455 111.573853,698.256348 109.426445,700.432556 
	C100.421036,709.558655 91.354408,718.625732 82.206055,727.608337 
	C80.156532,729.620667 79.187683,731.720947 79.222221,734.627441 
	C79.346863,745.116333 79.363098,755.609131 79.205757,766.097229 
	C79.159019,769.213135 80.263405,771.402649 82.427681,773.524719 
	C90.987900,781.917725 99.552269,790.315430 107.826988,798.986328 
	C111.109650,802.426208 114.644264,803.666748 119.303253,803.644775 
	C150.764740,803.496277 182.227234,803.530945 213.689285,803.582031 
	C216.585800,803.586731 218.754456,802.582520 220.754272,800.566467 
	C230.017670,791.227905 239.304489,781.910889 248.706757,772.712769 
	C250.935928,770.531982 251.686050,768.180176 251.643860,765.155884 
	C251.500000,754.844910 251.497543,744.530762 251.567749,734.218689 
	C251.585495,731.613037 250.382736,729.865051 248.654053,728.166748 
	C242.715378,722.332458 236.839722,716.434021 230.434402,710.065735 
M172.289307,667.789612 
	C177.477051,662.613342 182.582336,657.350464 187.887955,652.297913 
	C190.474731,649.834534 191.706146,647.183105 191.677826,643.527710 
	C191.538467,625.540466 191.568665,607.551208 191.662201,589.563354 
	C191.677124,586.691528 190.885590,584.539246 188.801010,582.499878 
	C179.633957,573.531860 170.558777,564.468201 161.558075,555.333069 
	C159.418823,553.161865 157.161987,552.170837 154.079453,552.187561 
	C135.758514,552.286926 117.436417,552.279663 99.115509,552.172424 
	C96.057816,552.154541 93.766190,553.024902 91.609787,555.228455 
	C82.873100,564.156006 74.039284,572.990234 65.132133,581.747864 
	C62.958569,583.884888 61.932568,586.142822 61.950848,589.223389 
	C62.060551,607.710754 62.077297,626.199280 61.997189,644.686890 
	C61.983860,647.762390 62.969955,650.034241 65.159195,652.167542 
	C73.983696,660.766418 82.764793,669.413940 91.376770,678.224487 
	C93.914047,680.820312 96.556648,681.883850 100.171318,681.835571 
	C113.160629,681.662292 126.236664,680.848511 139.122681,682.014526 
	C152.930695,683.263977 163.821655,679.840149 172.289307,667.789612 
M482.729462,299.508850 
	C482.727661,297.176544 482.731934,294.844177 482.722900,292.511902 
	C482.694580,285.200989 482.692657,285.201019 475.254944,285.170746 
	C468.715454,285.144165 468.684875,285.144165 468.680573,278.396729 
	C468.663788,252.073059 468.606720,225.749100 468.732483,199.426041 
	C468.750732,195.609558 467.704468,194.038910 463.676025,194.133362 
	C454.517975,194.348053 445.346985,194.350143 436.189545,194.115616 
	C431.518372,193.996017 430.163849,195.909973 430.271057,200.369080 
	C430.519257,210.692596 430.344208,221.026245 430.343903,231.355774 
	C430.341492,312.825867 430.338928,394.295929 430.339539,475.766022 
	C430.339569,482.509735 430.440002,482.602325 437.453979,482.606964 
	C445.451050,482.612274 453.448090,482.608826 461.445160,482.601562 
	C468.649902,482.595001 468.663177,482.590485 468.663940,475.533325 
	C468.668976,427.884155 468.647125,380.234955 468.685730,332.585815 
	C468.693817,322.631683 467.338013,322.698792 477.835327,322.929840 
	C481.518066,323.010864 482.893402,321.694550 482.760651,317.997559 
	C482.551514,312.174194 482.720123,306.337280 482.729462,299.508850 
M662.500000,561.024231 
	C625.186096,561.017395 587.872131,561.011353 550.558228,561.002441 
	C546.893494,561.001526 543.227539,560.919922 539.564453,560.992249 
	C536.263000,561.057434 534.637024,559.737366 534.771240,556.252686 
	C534.924988,552.260681 534.794983,548.258179 534.812866,544.260376 
	C534.842224,537.693909 534.850586,537.670654 541.510803,537.669495 
	C584.821411,537.662048 628.132080,537.665649 671.442688,537.665344 
	C674.940857,537.665344 678.444458,537.541443 681.935669,537.696350 
	C685.444092,537.852112 686.734131,536.194214 686.635010,532.886841 
	C686.540344,529.724670 686.609070,526.557556 686.612305,523.392578 
	C686.619873,516.112732 686.444946,515.930725 679.027649,515.933777 
	C644.046021,515.947998 609.064148,516.056335 574.082825,515.953552 
	C550.434570,515.884033 526.779175,516.505859 503.139008,515.450928 
	C499.098633,515.270630 496.987457,516.458923 497.020447,521.036865 
	C497.176575,542.690979 497.146545,564.346985 497.069885,586.001892 
	C497.057953,589.379822 498.171417,590.704285 501.696838,590.699829 
	C561.498718,590.625549 621.300781,590.620850 681.102539,590.712524 
	C685.064331,590.718567 686.542297,589.033936 686.553101,585.412292 
	C686.572510,578.916138 686.463074,572.416321 686.651855,565.925171 
	C686.762634,562.113464 684.942932,560.985657 681.489807,561.039978 
	C675.494751,561.134338 669.496704,561.040344 662.500000,561.024231 
M347.500000,515.200073 
	C327.503937,515.202881 307.507904,515.203918 287.511841,515.209412 
	C279.195526,515.211731 279.195526,515.216064 279.221100,523.358887 
	C279.263214,536.763977 279.263214,536.763611 292.760529,536.762390 
	C299.858459,536.761719 306.956390,536.762329 313.657227,536.762329 
	C314.718384,539.105042 314.124298,540.508667 313.716125,541.950195 
	C310.045563,554.913879 306.382782,567.879944 302.741241,580.851868 
	C293.884338,612.402222 285.104553,643.974487 276.112549,675.486206 
	C274.932648,679.621216 275.869995,680.964661 280.045593,680.853821 
	C286.039948,680.694641 292.060150,680.537842 298.034912,680.919189 
	C302.725372,681.218567 304.755737,679.488647 306.009277,674.956543 
	C314.391418,644.651367 323.039368,614.419739 331.645416,584.176758 
	C332.154083,582.389282 332.201355,580.314087 333.656036,578.992493 
	C335.496521,579.489929 335.296509,580.906250 335.595612,581.931396 
	C338.204651,590.873962 340.764954,599.831055 343.305664,608.793396 
	C349.610687,631.034546 355.995087,653.254089 362.104797,675.548828 
	C363.245361,679.710693 365.209869,681.194946 369.430878,680.927673 
	C374.575684,680.601868 379.757172,680.858154 384.922791,680.857605 
	C393.423553,680.856689 393.391876,680.863831 391.082825,672.665344 
	C378.902557,629.418335 366.735352,586.167664 354.585175,542.912231 
	C354.069641,541.077087 352.840607,539.219788 354.628113,536.767639 
	C364.635620,536.767639 374.937042,536.693604 385.236603,536.801636 
	C389.794495,536.849426 392.155853,535.189941 391.701416,530.306030 
	C391.470825,527.828003 391.678955,525.310730 391.658508,522.811340 
	C391.606506,516.463318 390.518860,515.301575 383.992584,515.255615 
	C372.162201,515.172241 360.330902,515.212280 347.500000,515.200073 
M137.338257,450.499939 
	C137.339905,459.493988 137.507996,468.492554 137.264664,477.479950 
	C137.161316,481.297180 138.441788,482.247528 142.149536,482.185333 
	C151.299591,482.031799 160.466843,482.179810 169.609375,482.596771 
	C174.382278,482.814484 175.822113,481.262238 175.775238,476.402832 
	C175.534302,451.420868 175.792435,426.434113 175.559647,401.452026 
	C175.512878,396.434479 176.918106,394.835480 182.020905,394.895142 
	C203.171265,395.142548 224.326981,394.898193 245.479202,395.048462 
	C249.796967,395.079132 251.608276,393.396484 251.590210,389.259766 
	C251.550186,380.099396 251.483612,370.938385 251.554916,361.778625 
	C251.581192,358.405273 250.292114,357.222626 246.818359,357.227814 
	C186.856186,357.317230 126.893822,357.314758 66.931625,357.236969 
	C63.257576,357.232208 61.889565,358.487976 61.964802,362.165131 
	C62.138546,370.656311 62.047977,379.153259 62.033100,387.647827 
	C62.020306,394.953735 62.000988,394.974030 69.091484,394.978882 
	C89.412033,394.992737 109.732590,394.984711 130.053146,394.993591 
	C137.340042,394.996765 137.341003,395.007568 137.341003,402.029755 
	C137.340988,417.853149 137.339920,433.676514 137.338257,450.499939 
M626.500000,482.063019 
	C644.316956,482.065094 662.134521,481.988434 679.950378,482.127899 
	C684.097351,482.160339 685.976379,481.028503 685.820618,476.476288 
	C685.518982,467.661407 685.554810,458.823944 685.805115,450.005890 
	C685.928101,445.673615 684.473083,443.759857 680.075439,444.284698 
	C678.762146,444.441437 677.414185,444.307465 676.082092,444.307251 
	C630.956970,444.300568 585.831665,444.225677 540.707153,444.385925 
	C535.846436,444.403198 534.346008,442.916382 534.553223,438.136993 
	C534.899231,430.159576 534.497253,422.152344 534.696350,414.164825 
	C534.794434,410.226318 533.233948,408.867645 529.416809,408.927399 
	C520.261047,409.070679 511.097839,409.104156 501.944733,408.884674 
	C497.612183,408.780762 496.183350,410.337402 496.227173,414.703278 
	C496.419434,433.850311 496.303558,453.000427 496.299988,472.149445 
	C496.298126,482.308899 496.298615,482.306793 506.609650,482.128235 
	C507.941406,482.105164 509.273804,482.114899 510.605896,482.114288 
	C548.903931,482.096741 587.201965,482.079834 626.500000,482.063019 
M685.719910,252.500000 
	C685.726257,234.337112 685.623962,216.173050 685.819458,198.012207 
	C685.865295,193.754562 684.751343,192.045166 680.217896,192.226059 
	C672.065918,192.551300 663.891541,192.316559 655.726562,192.316025 
	C647.989075,192.315521 647.955078,192.315659 647.956970,199.923904 
	C647.968384,245.081223 648.001648,290.238556 648.016907,335.395874 
	C648.022827,352.892212 648.072998,370.389069 647.939270,387.884460 
	C647.906982,392.117035 649.347839,393.862396 653.764343,393.733124 
	C662.421753,393.479767 671.096008,393.499847 679.755127,393.723816 
	C684.313049,393.841705 685.846069,392.151642 685.796936,387.578857 
	C685.598022,369.084808 685.721313,350.587402 685.716980,332.091217 
	C685.714478,321.517944 685.703125,321.373138 696.024048,321.102539 
	C699.798279,321.003601 700.929871,319.474091 700.860229,315.947449 
	C700.715393,308.618713 700.839294,301.284760 700.841858,293.952972 
	C700.845459,283.631348 700.842041,283.450531 690.697449,283.405640 
	C686.590759,283.387451 685.592163,281.688507 685.668762,277.993835 
	C685.838013,269.832397 685.719788,261.664978 685.719910,252.500000 
M430.864075,781.499878 
	C430.870911,697.885437 430.877747,614.270935 430.884613,530.656494 
	C430.884857,527.658386 430.787445,524.656250 430.909607,521.663147 
	C431.088776,517.273315 429.157562,515.136414 424.700928,515.242432 
	C421.205231,515.325562 417.690979,515.454041 414.211761,515.197998 
	C409.800293,514.873596 407.748535,516.519409 407.743591,521.087891 
	C407.728302,535.240845 407.512360,549.393494 407.428284,563.546570 
	C407.357025,575.544495 407.390228,575.544739 395.650085,575.928406 
	C395.317139,575.939270 394.983093,575.964294 394.651154,575.948547 
	C391.461060,575.797668 390.236206,577.296936 390.297821,580.485168 
	C390.436188,587.644592 390.332428,594.808716 390.335938,601.970886 
	C390.341614,613.530273 390.344574,613.666931 401.931366,613.665649 
	C405.959045,613.665161 407.513153,614.892029 407.506561,619.095947 
	C407.480438,635.746521 407.868439,652.397461 407.882416,669.048462 
	C407.896118,685.365784 407.310913,701.688782 407.582764,717.999451 
	C407.990540,742.468445 407.684601,766.929626 407.587158,791.394531 
	C407.571564,795.307251 406.892517,799.314209 408.366547,803.056396 
	C414.774933,803.056396 420.908203,803.043335 427.041382,803.062256 
	C429.806274,803.070801 430.867004,801.628052 430.846771,798.989075 
	C430.804565,793.493042 430.852509,787.996216 430.864075,781.499878 
M251.109100,578.501709 
	C251.103210,559.678711 251.106064,540.855774 251.086441,522.032776 
	C251.079987,515.843445 250.562698,515.263916 244.738190,515.229187 
	C235.905182,515.176514 227.067429,515.364441 218.240219,515.129761 
	C214.132660,515.020569 213.151855,516.756226 213.233551,520.496948 
	C213.426346,529.325928 213.191116,538.163696 213.332153,546.994690 
	C213.387390,550.452698 212.463898,552.520630 208.603928,552.174988 
	C205.436691,551.891296 204.121216,553.248962 204.162521,556.516602 
	C204.284760,566.181580 204.269363,575.850037 204.152176,585.515259 
	C204.112869,588.757385 205.434601,590.163574 208.605194,589.875488 
	C212.462143,589.525085 213.455978,591.564209 213.348419,595.034363 
	C213.178116,600.529114 213.183701,606.036255 213.341217,611.531677 
	C213.436661,614.861267 212.355392,616.676147 208.790558,616.279480 
	C205.293930,615.890381 204.106735,617.473755 204.161880,620.903809 
	C204.311905,630.234680 204.309662,639.571106 204.159363,648.902039 
	C204.102737,652.417419 205.126755,654.317261 208.949768,653.994995 
	C212.570450,653.689758 213.428329,655.770386 213.349030,658.981323 
	C213.205078,664.810974 213.426208,670.649902 213.271164,676.479065 
	C213.184357,679.742554 214.511520,680.908936 217.697678,680.872742 
	C227.363052,680.762878 237.031250,680.755615 246.696533,680.867554 
	C249.884781,680.904480 251.411560,679.492615 251.405075,676.477417 
	C251.395767,672.151672 251.090622,667.826416 251.087585,663.500854 
	C251.067932,635.500916 251.096054,607.500916 251.109100,578.501709 
M445.291809,784.498718 
	C445.298492,789.497498 445.392212,794.498230 445.277771,799.494202 
	C445.213715,802.290588 446.240143,803.361145 449.106079,803.205200 
	C453.260468,802.979187 457.433960,803.095947 461.599365,803.083801 
	C468.652039,803.063232 468.662903,803.068848 468.663239,795.836121 
	C468.667145,705.025330 468.667877,614.214539 468.668091,523.403748 
	C468.668091,522.070801 468.596100,520.735474 468.654419,519.405457 
	C468.785400,516.419495 467.334412,515.189087 464.422180,515.241272 
	C460.591370,515.309875 456.758118,515.231506 452.925903,515.231567 
	C445.296204,515.231689 445.288788,515.235962 445.288757,523.063904 
	C445.288391,609.875671 445.290497,696.687439 445.291809,784.498718 
M497.102448,625.673279 
	C497.099701,627.504822 497.095062,629.336304 497.094604,631.167847 
	C497.092468,639.974060 497.092834,639.960754 505.758392,639.959229 
	C561.535828,639.949097 617.313232,639.946106 673.090698,639.939087 
	C686.759277,639.937317 686.759277,639.934387 686.606018,626.020325 
	C686.527466,618.888306 685.990723,618.321045 678.928711,618.320007 
	C620.487244,618.311340 562.045654,618.368408 503.604523,618.216431 
	C498.586090,618.203369 496.397247,619.686951 497.102448,625.673279 
M191.648087,528.414917 
	C191.644867,526.084229 191.432938,523.730957 191.681732,521.427490 
	C192.203796,516.593811 190.165817,514.989807 185.409348,515.137085 
	C176.261337,515.420288 167.098602,515.234802 157.941971,515.230896 
	C145.714127,515.225708 145.714066,515.220520 145.651993,503.236206 
	C145.649399,502.736755 145.596924,502.230896 145.656891,501.738892 
	C146.093887,498.153992 144.322052,497.113953 140.979202,497.184113 
	C133.990128,497.330872 126.995552,497.210999 120.003227,497.207825 
	C107.556877,497.202148 107.361328,497.205536 107.432404,509.711609 
	C107.458176,514.245544 105.799309,515.380859 101.582375,515.300049 
	C90.099213,515.079895 78.607162,515.344177 67.122635,515.163086 
	C63.180557,515.100952 61.699818,516.540466 61.967319,520.418579 
	C62.195919,523.732788 62.306911,527.104614 61.960777,530.397461 
	C61.422787,535.515381 63.460114,536.891357 68.468781,536.867676 
	C107.092239,536.684875 145.716980,536.775269 184.341324,536.775085 
	C191.622147,536.775024 191.622147,536.762939 191.648087,528.414917 
M519.499878,195.139542 
	C513.167542,195.146820 506.834595,195.210068 500.503235,195.136383 
	C497.599030,195.102570 496.188751,196.192062 496.304230,199.249557 
	C496.436127,202.743805 496.319458,206.247223 496.320404,209.746658 
	C496.322266,216.671188 496.325012,216.687714 503.178558,216.688400 
	C541.839294,216.692322 580.500000,216.687805 619.160706,216.685120 
	C620.160522,216.685059 621.162354,216.628296 622.159668,216.674728 
	C624.706299,216.793289 625.790283,215.543488 625.776611,213.064575 
	C625.752625,208.732376 625.662598,204.393875 625.853943,200.069244 
	C626.015747,196.410004 624.557434,195.044159 620.881897,195.107956 
	C611.719604,195.266937 602.552368,195.136703 593.387146,195.134155 
	C580.163818,195.130493 580.163818,195.134857 579.819214,182.220428 
	C579.814758,182.053879 579.800232,181.885681 579.816284,181.720764 
	C580.152466,178.263336 578.552979,176.968781 575.140076,177.039337 
	C567.977417,177.187408 560.809692,177.072189 553.644348,177.111923 
	C540.686035,177.183777 542.185242,176.132080 542.111511,188.684204 
	C542.108582,189.184113 542.066528,189.686295 542.100342,190.183487 
	C542.349915,193.852173 540.563049,195.245071 536.996277,195.160172 
	C531.500366,195.029358 525.998901,195.135254 519.499878,195.139542 
z"/>
<path fill="#000000" opacity="1.000000" stroke="none" 
	d="
M321.290527,231.872955 
	C336.256653,231.864594 350.756744,231.928787 365.255341,231.810974 
	C368.884857,231.781479 370.564331,232.537979 370.543915,236.799240 
	C370.361847,274.796906 370.338318,312.796112 370.512878,350.793732 
	C370.535706,355.763977 369.238800,357.513519 364.079865,357.390808 
	C350.421295,357.065857 336.747559,357.131653 323.085114,357.357178 
	C318.601318,357.431183 316.885468,356.103149 316.901123,351.427490 
	C317.027771,313.595795 316.950195,275.763458 316.968903,237.931320 
	C316.970276,235.179367 316.380951,231.878922 321.290527,231.872955 
z"/>
<path fill="#000000" opacity="1.000000" stroke="none" 
	d="
M139.000000,294.885620 
	C127.674858,294.879578 116.848183,294.765533 106.025284,294.918243 
	C101.402771,294.983429 99.603508,293.377533 99.673279,288.502502 
	C99.916351,271.518921 99.862595,254.528183 99.663879,237.543198 
	C99.612991,233.194397 101.033821,231.759430 105.412224,231.776642 
	C139.386078,231.910126 173.360977,231.902206 207.334824,231.759506 
	C211.826447,231.740662 213.460632,233.070221 213.396103,237.738464 
	C213.156693,255.055527 213.208725,272.378326 213.342941,289.697479 
	C213.371552,293.390045 212.013687,294.718475 208.423615,294.717987 
	C185.449081,294.714905 162.474533,294.817688 139.000000,294.885620 
z"/>
<path fill="#000000" opacity="1.000000" stroke="none" 
	d="
M536.347290,270.095642 
	C552.288879,269.876068 567.781189,269.903656 583.270203,269.694733 
	C587.574158,269.636719 588.138977,271.924103 588.125488,275.371338 
	C588.059509,292.197876 588.095276,309.024872 588.100952,325.851685 
	C588.103943,334.681610 588.045654,343.512482 588.164490,352.340942 
	C588.212463,355.903015 586.919983,357.397919 583.186096,357.361145 
	C568.526428,357.216675 553.864075,357.231323 539.203918,357.340729 
	C535.871277,357.365570 534.517700,356.466339 534.537537,352.819702 
	C534.678101,326.997131 534.599915,301.173401 534.629456,275.350098 
	C534.631470,273.584564 534.154358,271.620392 536.347290,270.095642 
z"/>
<path fill="#000000" opacity="1.000000" stroke="none" 
	d="
M213.290161,749.007935 
	C213.289307,752.999756 213.071838,756.510681 213.342148,759.983643 
	C213.668884,764.181458 211.929901,765.399902 207.874161,765.375732 
	C184.414520,765.235840 160.953598,765.312073 137.493103,765.313599 
	C132.335129,765.313904 127.172127,765.168030 122.020905,765.352966 
	C118.434448,765.481750 116.828957,764.191956 116.907272,760.482849 
	C117.047722,753.830505 117.033607,747.171021 116.902687,740.518188 
	C116.830719,736.860962 118.353157,735.617065 121.983521,735.629639 
	C150.768021,735.729187 179.553146,735.723877 208.337692,735.631470 
	C211.943176,735.619873 213.581390,736.811035 213.327499,740.526062 
	C213.146423,743.175903 213.290634,745.848022 213.290161,749.007935 
z"/>
<path fill="#000000" opacity="1.000000" stroke="none" 
	d="
M102.405212,643.952637 
	C99.379700,643.017639 99.769318,640.812134 99.765755,638.877625 
	C99.738808,624.241638 99.835785,609.604980 99.701973,594.970215 
	C99.668694,591.330078 100.947189,589.899658 104.611679,589.920471 
	C119.246956,590.003601 133.883743,589.980225 148.518707,589.851379 
	C152.237244,589.818726 153.401855,591.375183 153.370392,594.953674 
	C153.241684,609.588501 153.188599,624.226929 153.396835,638.859924 
	C153.458298,643.178833 151.673355,644.253357 147.762802,644.208862 
	C132.796478,644.038269 117.827827,644.073364 102.405212,643.952637 
z"/>
</svg>