<svg xmlns="http://www.w3.org/2000/svg" xmlns:xlink="http://www.w3.org/1999/xlink" width="500" zoomAndPan="magnify" viewBox="0 0 375 374.999991" height="500" preserveAspectRatio="xMidYMid meet" version="1.0"><defs><clipPath id="935a99daae"><path d="M 149.398438 261 L 225.71875 261 L 225.71875 280.523438 L 149.398438 280.523438 Z M 149.398438 261 " clip-rule="nonzero"/></clipPath><clipPath id="f0a1062b37"><path d="M 134.308594 94.664062 L 240.800781 94.664062 L 240.800781 260.617188 L 134.308594 260.617188 Z M 134.308594 94.664062 " clip-rule="nonzero"/></clipPath></defs><g clip-path="url(#935a99daae)"><path fill="#cba585" d="M 224.117188 280.523438 L 151 280.523438 C 150.511719 280.523438 150.054688 280.304688 149.75 279.921875 C 149.449219 279.546875 149.335938 279.050781 149.441406 278.578125 L 153.109375 262.308594 C 153.273438 261.582031 153.921875 261.066406 154.667969 261.066406 L 220.445312 261.066406 C 221.191406 261.066406 221.835938 261.582031 222.003906 262.308594 L 225.671875 278.578125 C 225.777344 279.050781 225.664062 279.546875 225.359375 279.921875 C 225.058594 280.304688 224.597656 280.523438 224.113281 280.523438 Z M 152.992188 277.332031 L 222.117188 277.332031 L 219.171875 264.257812 L 155.945312 264.257812 L 152.992188 277.332031 " fill-opacity="1" fill-rule="nonzero"/></g><g clip-path="url(#f0a1062b37)"><path fill="#cba585" d="M 219.476562 260.585938 L 155.632812 260.585938 C 154.875 260.585938 154.222656 260.050781 154.070312 259.3125 C 149.828125 238.613281 143.226562 218.304688 134.453125 198.945312 C 134.132812 198.238281 134.367188 197.402344 135.007812 196.964844 C 159.730469 180.105469 172.65625 141.015625 182.785156 105.445312 C 181.625 104.226562 180.960938 102.597656 180.960938 100.90625 C 180.960938 98.183594 182.601562 95.777344 185.136719 94.773438 C 185.628906 94.582031 186.183594 94.640625 186.621094 94.9375 C 187.058594 95.234375 187.316406 95.730469 187.316406 96.257812 L 187.316406 207.660156 C 187.316406 208.425781 186.777344 209.082031 186.027344 209.230469 C 182.289062 209.953125 179.578125 213.246094 179.578125 217.058594 C 179.578125 221.460938 183.15625 225.035156 187.558594 225.035156 C 191.957031 225.035156 195.539062 221.460938 195.539062 217.058594 C 195.539062 213.246094 192.824219 209.953125 189.085938 209.230469 C 188.339844 209.082031 187.796875 208.425781 187.796875 207.660156 L 187.796875 96.257812 C 187.796875 95.730469 188.058594 95.234375 188.492188 94.9375 C 188.929688 94.640625 189.488281 94.582031 189.976562 94.773438 C 192.515625 95.777344 194.152344 98.183594 194.152344 100.90625 C 194.152344 102.597656 193.488281 104.226562 192.332031 105.445312 C 202.457031 141.015625 215.382812 180.105469 240.105469 196.964844 C 240.746094 197.402344 240.980469 198.238281 240.660156 198.945312 C 231.886719 218.304688 225.289062 238.613281 221.042969 259.3125 C 220.890625 260.050781 220.234375 260.585938 219.480469 260.585938 Z M 156.933594 257.394531 L 218.179688 257.394531 C 222.390625 237.339844 228.789062 217.648438 237.207031 198.835938 C 213.71875 182 200.875 146.210938 190.988281 112.3125 L 190.988281 206.425781 C 195.542969 207.890625 198.730469 212.171875 198.730469 217.058594 C 198.730469 223.21875 193.714844 228.226562 187.558594 228.226562 C 181.394531 228.226562 176.386719 223.21875 176.386719 217.058594 C 176.386719 212.171875 179.566406 207.890625 184.125 206.425781 L 184.125 112.3125 C 174.238281 146.210938 161.394531 182 137.90625 198.835938 C 146.324219 217.648438 152.722656 237.339844 156.933594 257.394531 " fill-opacity="1" fill-rule="nonzero"/></g></svg>