<svg xmlns="http://www.w3.org/2000/svg" xmlns:xlink="http://www.w3.org/1999/xlink" width="500" zoomAndPan="magnify" viewBox="0 0 375 374.999991" height="500" preserveAspectRatio="xMidYMid meet" version="1.0"><defs><g/></defs><g fill="#cba585" fill-opacity="1"><g transform="translate(60.785807, 215.124993)"><g><path d="M 54.441406 -28.007812 L 50.964844 -27.875 L 50.964844 -49.652344 L 51.097656 -52.933594 C 51.097656 -53.589844 50.898438 -54.046875 50.375 -54.246094 C 48.539062 -55.03125 44.535156 -55.882812 42.242188 -55.949219 C 41.714844 -55.949219 41.585938 -55.820312 41.453125 -55.621094 L 40.996094 -54.046875 C 43.226562 -53.261719 45.257812 -52.144531 46.4375 -50.769531 L 46.4375 -4.917969 C 46.4375 -2.035156 46.570312 4.261719 46.765625 7.082031 L 49.390625 7.082031 C 50.375 3.34375 50.964844 -2.753906 50.964844 -6.558594 L 50.964844 -24.992188 L 60.933594 -25.1875 C 61.394531 -25.1875 61.917969 -25.253906 62.179688 -25.515625 C 62.640625 -25.84375 63.035156 -26.628906 62.96875 -27.8125 C 62.96875 -28.335938 62.574219 -28.792969 62.050781 -28.925781 C 60.867188 -29.1875 58.3125 -29.320312 56.472656 -29.253906 Z M 39.8125 -15.808594 C 40.011719 -17.382812 40.273438 -19.808594 40.273438 -21.644531 L 40.601562 -43.617188 L 40.667969 -45.78125 C 40.667969 -46.308594 40.535156 -46.570312 40.078125 -46.765625 C 38.699219 -47.355469 36.335938 -47.882812 34.566406 -48.011719 C 34.109375 -48.011719 33.976562 -47.949219 33.910156 -47.683594 L 33.320312 -46.175781 C 34.699219 -45.652344 35.746094 -45.0625 36.335938 -44.40625 L 36.335938 -32.664062 L 29.320312 -32.46875 L 29.386719 -41.652344 L 29.449219 -43.878906 C 29.515625 -44.472656 29.386719 -44.734375 28.792969 -44.929688 C 27.679688 -45.390625 25.582031 -45.78125 24.007812 -45.914062 C 23.480469 -45.980469 23.351562 -45.847656 23.285156 -45.652344 L 22.695312 -44.078125 C 23.875 -43.617188 24.792969 -43.027344 25.1875 -42.4375 L 25.515625 -13.511719 C 25.515625 -12.398438 25.710938 -10.953125 26.039062 -10.101562 L 28.140625 -10.101562 C 28.597656 -10.625 28.992188 -11.480469 29.1875 -12.789062 C 32.007812 -12.855469 38.175781 -12.855469 40.667969 -12.921875 C 40.996094 -13.25 41.257812 -13.90625 41.257812 -14.757812 C 41.257812 -15.085938 41.125 -15.28125 40.796875 -15.414062 Z M 36.335938 -29.714844 L 36.335938 -15.875 L 29.253906 -15.808594 L 29.320312 -29.515625 Z M 19.875 -15.019531 C 20.203125 -16.59375 20.53125 -18.957031 20.53125 -20.792969 L 20.726562 -40.011719 L 20.859375 -42.042969 C 20.921875 -42.570312 20.726562 -42.898438 20.203125 -43.09375 C 19.023438 -43.617188 16.921875 -44.144531 15.347656 -44.273438 C 14.953125 -44.273438 14.757812 -44.207031 14.691406 -43.945312 L 14.167969 -42.4375 C 15.347656 -41.980469 16.199219 -41.386719 16.726562 -40.796875 L 16.726562 -31.679688 L 9.839844 -31.484375 L 9.90625 -37.976562 L 9.96875 -40.207031 C 9.96875 -40.734375 9.839844 -41.058594 9.3125 -41.191406 C 8.066406 -41.652344 5.773438 -42.042969 4.132812 -42.109375 C 3.671875 -42.109375 3.476562 -42.042969 3.410156 -41.78125 L 2.886719 -40.207031 C 4.199219 -39.8125 5.183594 -39.222656 5.707031 -38.632812 L 6.035156 -12.921875 C 6.035156 -11.871094 6.164062 -10.429688 6.492188 -9.511719 L 8.65625 -9.511719 C 9.050781 -10.035156 9.511719 -10.886719 9.707031 -12.070312 C 12.660156 -12.070312 18.496094 -12.132812 20.859375 -12.132812 C 21.1875 -12.460938 21.449219 -13.183594 21.449219 -13.90625 C 21.449219 -14.234375 21.382812 -14.429688 20.988281 -14.625 Z M 16.726562 -28.730469 L 16.726562 -15.085938 L 9.773438 -15.019531 L 9.839844 -28.53125 Z M 16.726562 -28.730469 "/></g></g></g><g fill="#cba585" fill-opacity="1"><g transform="translate(124.143016, 215.124993)"><g><path d="M 51.425781 -20.203125 C 46.832031 -19.875 13.445312 -19.480469 9.445312 -19.546875 C 7.410156 -19.546875 4.328125 -19.808594 2.164062 -20.203125 L 1.707031 -19.285156 C 1.640625 -19.023438 1.707031 -18.824219 1.902344 -18.695312 C 3.542969 -17.316406 5.96875 -16.003906 8.332031 -15.21875 C 9.90625 -15.742188 13.25 -16.398438 14.890625 -16.527344 C 18.367188 -16.726562 48.40625 -17.121094 53 -17.054688 C 54.964844 -17.054688 58.835938 -16.921875 60.605469 -16.726562 C 61.195312 -16.988281 61.984375 -18.039062 61.984375 -19.152344 C 61.984375 -19.675781 61.589844 -20.070312 61.132812 -20.203125 C 59.621094 -20.726562 56.144531 -21.121094 53.785156 -21.1875 Z M 42.898438 1.902344 C 39.09375 2.097656 27.351562 2.164062 22.957031 2.097656 C 21.710938 2.097656 21.316406 1.574219 21.316406 0.460938 L 21.316406 -6.429688 L 21.449219 -9.445312 C 21.449219 -10.167969 21.121094 -10.496094 20.464844 -10.691406 C 18.824219 -11.019531 15.085938 -11.28125 12.921875 -11.28125 C 12.460938 -11.28125 12.265625 -11.152344 12.199219 -10.886719 L 11.871094 -9.445312 C 13.644531 -9.050781 15.414062 -8.332031 16.527344 -7.476562 L 16.527344 -0.132812 C 16.527344 3.410156 17.972656 4.984375 22.105469 4.984375 L 50.441406 4.789062 C 50.832031 4.789062 51.097656 4.722656 51.359375 4.527344 C 51.621094 4.199219 52.078125 3.410156 52.078125 2.164062 C 52.078125 1.707031 51.6875 1.378906 51.226562 1.246094 C 49.914062 0.984375 46.964844 0.785156 44.996094 0.785156 Z M 14.953125 -29.84375 C 14.953125 -27.023438 16.070312 -25.84375 19.546875 -25.84375 L 50.503906 -26.300781 C 50.832031 -26.300781 51.03125 -26.367188 51.292969 -26.566406 C 51.554688 -26.894531 51.949219 -27.613281 51.949219 -28.730469 C 51.949219 -29.1875 51.621094 -29.449219 51.160156 -29.515625 C 49.980469 -29.777344 47.226562 -29.976562 45.390625 -29.910156 L 43.554688 -28.925781 C 39.550781 -28.664062 26.433594 -28.464844 20.921875 -28.53125 C 20.070312 -28.53125 19.808594 -28.859375 19.808594 -29.648438 L 19.808594 -37.125 L 48.078125 -37.585938 C 48.339844 -37.78125 48.667969 -38.4375 48.667969 -39.160156 C 48.667969 -39.421875 48.601562 -39.550781 48.339844 -39.75 L 47.027344 -40.339844 C 47.554688 -42.109375 48.210938 -45.71875 48.40625 -47.882812 L 49.128906 -49.457031 C 49.257812 -49.785156 49.257812 -50.046875 48.996094 -50.308594 C 48.472656 -50.703125 47.160156 -51.425781 46.503906 -51.75 C 46.175781 -51.882812 45.71875 -51.882812 45.453125 -51.75 L 43.554688 -50.769531 C 39.355469 -50.570312 21.90625 -50.308594 18.300781 -50.375 C 16.660156 -50.375 13.972656 -50.570312 12.199219 -50.898438 L 11.804688 -50.242188 C 11.742188 -49.980469 11.742188 -49.785156 12.003906 -49.585938 C 13.445312 -48.472656 15.414062 -47.355469 17.511719 -46.636719 C 19.21875 -47.09375 21.777344 -47.554688 22.957031 -47.621094 C 25.710938 -47.816406 38.566406 -48.078125 43.09375 -48.011719 C 43.160156 -46.308594 43.09375 -42.042969 42.898438 -40.40625 L 41.847656 -40.078125 C 39.027344 -39.878906 24.597656 -39.617188 19.941406 -39.617188 C 18.300781 -39.878906 13.972656 -40.011719 12.132812 -40.011719 C 11.742188 -40.011719 11.542969 -39.8125 11.480469 -39.617188 L 11.214844 -38.371094 C 12.726562 -38.109375 14.101562 -37.519531 14.953125 -36.730469 Z M 14.953125 -29.84375 "/></g></g></g><g fill="#cba585" fill-opacity="1"><g transform="translate(187.500225, 215.124993)"><g><path d="M 33.714844 -23.546875 C 34.109375 -23.089844 34.828125 -22.628906 35.222656 -22.5625 C 35.945312 -22.300781 37.125 -22.824219 37.386719 -23.613281 C 37.519531 -24.007812 37.386719 -24.597656 36.929688 -25.449219 C 36.273438 -26.628906 34.761719 -28.664062 33.648438 -30.039062 L 30.828125 -31.023438 L 22.496094 -37.976562 C 23.941406 -40.535156 25.054688 -43.160156 25.777344 -45.71875 C 25.84375 -46.046875 25.972656 -46.636719 25.972656 -47.160156 C 25.972656 -47.683594 25.710938 -48.144531 25.1875 -48.40625 C 23.875 -49.257812 20.332031 -50.570312 18.101562 -51.03125 C 17.710938 -51.097656 17.449219 -51.03125 17.316406 -50.769531 L 16.59375 -49.390625 C 18.167969 -48.539062 19.742188 -47.027344 20.332031 -45.847656 C 17.90625 -37.453125 11.347656 -27.746094 2.492188 -20.136719 C 2.164062 -19.875 2.164062 -19.675781 2.359375 -19.480469 L 3.015625 -18.824219 C 3.28125 -18.628906 3.476562 -18.628906 3.738281 -18.890625 C 10.953125 -23.546875 16.792969 -29.320312 20.792969 -35.355469 Z M 35.683594 2.625 C 30.433594 2.625 26.628906 -0.589844 26.628906 -5.96875 C 26.628906 -11.214844 30.433594 -14.496094 35.683594 -14.496094 C 40.863281 -14.496094 44.734375 -11.214844 44.734375 -5.96875 C 44.734375 -0.589844 40.863281 2.625 35.683594 2.625 Z M 35.683594 -17.773438 C 27.546875 -17.773438 21.644531 -12.921875 21.644531 -5.96875 C 21.644531 1.378906 27.546875 6.429688 35.683594 6.429688 C 43.75 6.429688 49.71875 1.378906 49.71875 -5.96875 C 49.71875 -12.921875 43.75 -17.773438 35.683594 -17.773438 Z M 54.179688 -34.4375 L 49.71875 -34.238281 L 49.71875 -49.523438 L 49.851562 -52.933594 C 49.851562 -53.589844 49.652344 -54.046875 49.0625 -54.246094 C 47.226562 -55.03125 43.160156 -55.882812 40.734375 -55.949219 C 40.273438 -55.949219 40.078125 -55.820312 40.011719 -55.621094 L 39.484375 -54.046875 C 41.847656 -53.261719 43.878906 -52.078125 45.0625 -50.703125 L 45.0625 -27.679688 C 45.0625 -24.792969 45.128906 -19.546875 45.390625 -16.988281 L 48.210938 -16.988281 C 49.0625 -20.070312 49.71875 -24.992188 49.71875 -29.1875 L 49.71875 -31.351562 L 60.933594 -31.550781 C 61.394531 -31.550781 61.917969 -31.679688 62.179688 -31.878906 C 62.640625 -32.207031 63.035156 -33.058594 62.96875 -34.238281 C 62.96875 -34.699219 62.574219 -35.15625 62.050781 -35.289062 C 60.867188 -35.550781 58.179688 -35.683594 56.277344 -35.617188 Z M 54.179688 -34.4375 "/></g></g></g><g fill="#cba585" fill-opacity="1"><g transform="translate(250.857423, 215.124993)"><g><path d="M 51.425781 -6.429688 C 50.375 -6.363281 47.683594 -6.296875 44.207031 -6.230469 L 45.0625 -15.347656 L 45.519531 -17.90625 C 45.585938 -18.367188 45.453125 -18.628906 44.863281 -18.957031 C 43.355469 -19.613281 40.339844 -20.269531 38.304688 -20.53125 C 37.910156 -20.53125 37.714844 -20.464844 37.585938 -20.203125 L 37.058594 -18.957031 C 38.566406 -18.300781 39.8125 -17.25 40.46875 -16.265625 L 40.078125 -6.164062 C 35.550781 -6.035156 30.433594 -5.96875 25.582031 -5.902344 L 25.644531 -13.90625 L 25.84375 -16.660156 C 25.84375 -17.183594 25.710938 -17.511719 25.1875 -17.644531 C 23.546875 -18.167969 20.203125 -18.5625 18.167969 -18.5625 C 17.578125 -18.5625 17.449219 -18.429688 17.449219 -18.234375 L 17.121094 -16.726562 C 18.695312 -16.332031 20.203125 -15.546875 20.988281 -14.824219 L 21.316406 -5.835938 C 15.546875 -5.773438 10.824219 -5.773438 9.445312 -5.773438 C 7.410156 -5.835938 4.328125 -6.101562 2.164062 -6.492188 L 1.707031 -5.574219 C 1.640625 -5.3125 1.707031 -5.117188 1.902344 -4.984375 C 3.542969 -3.609375 5.96875 -2.296875 8.332031 -1.507812 C 9.90625 -2.035156 13.25 -2.625 14.890625 -2.753906 C 18.367188 -3.015625 48.40625 -3.34375 53 -3.28125 C 54.964844 -3.28125 58.835938 -3.148438 60.605469 -2.953125 C 61.195312 -3.28125 61.984375 -4.261719 61.984375 -5.378906 C 61.984375 -5.96875 61.589844 -6.363281 61.132812 -6.492188 C 59.621094 -7.019531 56.144531 -7.410156 53.785156 -7.476562 Z M 8.921875 -25.382812 C 8.855469 -25.253906 8.855469 -24.992188 9.050781 -24.859375 C 10.558594 -23.613281 12.855469 -22.367188 14.757812 -21.777344 C 16.003906 -22.234375 18.628906 -22.695312 19.875 -22.761719 C 23.023438 -22.957031 43.226562 -23.21875 46.503906 -23.21875 C 48.011719 -23.21875 51.554688 -23.152344 52.933594 -22.957031 C 53.457031 -23.21875 54.113281 -24.136719 54.113281 -25.320312 C 54.113281 -25.710938 53.851562 -26.039062 53.457031 -26.171875 C 52.210938 -26.628906 49.195312 -27.023438 47.160156 -27.089844 L 44.996094 -26.039062 C 44.535156 -26.039062 43.878906 -25.972656 42.960938 -25.972656 L 43.816406 -38.4375 L 44.078125 -41.191406 C 44.078125 -41.714844 43.878906 -42.109375 43.355469 -42.242188 C 41.78125 -42.765625 38.632812 -43.160156 36.601562 -43.160156 C 36.140625 -43.160156 35.945312 -42.960938 35.878906 -42.832031 L 35.550781 -41.453125 C 37.058594 -40.929688 38.503906 -40.140625 39.222656 -39.289062 L 38.894531 -25.910156 L 25.320312 -25.710938 L 25.054688 -36.46875 L 25.121094 -39.160156 C 25.1875 -39.683594 24.992188 -40.011719 24.53125 -40.207031 C 23.023438 -40.863281 20.070312 -41.519531 18.039062 -41.714844 C 17.578125 -41.714844 17.449219 -41.652344 17.316406 -41.386719 L 16.792969 -40.011719 C 18.367188 -39.355469 19.742188 -38.371094 20.464844 -37.320312 L 21.25 -25.710938 L 15.808594 -25.644531 C 14.167969 -25.644531 11.347656 -25.910156 9.3125 -26.238281 Z M 45.191406 -48.472656 C 41.585938 -48.277344 18.824219 -48.011719 15.609375 -48.078125 C 13.972656 -48.078125 11.152344 -48.339844 9.117188 -48.667969 L 8.722656 -47.816406 C 8.59375 -47.683594 8.65625 -47.421875 8.855469 -47.292969 C 10.363281 -46.046875 12.59375 -44.800781 14.5625 -44.207031 C 15.808594 -44.601562 18.367188 -45.128906 19.675781 -45.191406 C 22.824219 -45.390625 43.355469 -45.585938 46.703125 -45.585938 C 48.210938 -45.585938 51.816406 -45.519531 53.195312 -45.390625 C 53.652344 -45.652344 54.375 -46.570312 54.375 -47.75 C 54.375 -48.078125 54.113281 -48.472656 53.652344 -48.601562 C 52.40625 -49.0625 49.457031 -49.390625 47.421875 -49.457031 Z M 45.191406 -48.472656 "/></g></g></g></svg>