<svg xmlns="http://www.w3.org/2000/svg" xmlns:xlink="http://www.w3.org/1999/xlink" width="500" zoomAndPan="magnify" viewBox="0 0 375 374.999991" height="500" preserveAspectRatio="xMidYMid meet" version="1.0"><defs><clipPath id="2473883d42"><path d="M 110.546875 335.324219 L 264.265625 335.324219 L 264.265625 374.875 L 110.546875 374.875 Z M 110.546875 335.324219 " clip-rule="nonzero"/></clipPath><clipPath id="1461d7aa96"><path d="M 80.15625 0.132812 L 294.640625 0.132812 L 294.640625 334.738281 L 80.15625 334.738281 Z M 80.15625 0.132812 " clip-rule="nonzero"/></clipPath></defs><g clip-path="url(#2473883d42)"><path fill="#cba585" d="M 261.03125 374.875 L 113.769531 374.875 C 112.789062 374.875 111.867188 374.429688 111.257812 373.664062 C 110.648438 372.902344 110.414062 371.902344 110.632812 370.949219 L 118.019531 338.144531 C 118.351562 336.679688 119.652344 335.640625 121.15625 335.640625 L 253.636719 335.640625 C 255.140625 335.640625 256.441406 336.679688 256.777344 338.144531 L 264.164062 370.949219 C 264.378906 371.902344 264.152344 372.902344 263.539062 373.664062 C 262.929688 374.429688 262.007812 374.875 261.03125 374.875 Z M 117.785156 368.441406 L 257.011719 368.441406 L 251.074219 342.074219 L 123.726562 342.074219 L 117.785156 368.441406 " fill-opacity="1" fill-rule="nonzero"/></g><g clip-path="url(#1461d7aa96)"><path fill="#cba585" d="M 251.691406 334.675781 L 123.101562 334.675781 C 121.578125 334.675781 120.261719 333.597656 119.957031 332.105469 C 111.40625 290.375 98.113281 249.425781 80.445312 210.390625 C 79.800781 208.964844 80.269531 207.285156 81.558594 206.402344 C 131.359375 172.40625 157.390625 93.59375 177.789062 21.867188 C 175.457031 19.417969 174.117188 16.132812 174.117188 12.71875 C 174.117188 7.230469 177.417969 2.378906 182.519531 0.359375 C 183.515625 -0.0351562 184.632812 0.0898438 185.515625 0.6875 C 186.394531 1.289062 186.917969 2.285156 186.917969 3.347656 L 186.917969 227.964844 C 186.917969 229.507812 185.828125 230.828125 184.316406 231.128906 C 176.792969 232.585938 171.328125 239.222656 171.328125 246.910156 C 171.328125 255.785156 178.535156 262.996094 187.402344 262.996094 C 196.261719 262.996094 203.476562 255.785156 203.476562 246.910156 C 203.476562 239.222656 198.011719 232.585938 190.480469 231.128906 C 188.972656 230.828125 187.882812 229.507812 187.882812 227.964844 L 187.882812 3.347656 C 187.882812 2.285156 188.40625 1.289062 189.285156 0.6875 C 190.167969 0.0898438 191.289062 -0.0351562 192.277344 0.355469 C 197.382812 2.378906 200.679688 7.226562 200.679688 12.71875 C 200.679688 16.132812 199.34375 19.417969 197.015625 21.867188 C 217.410156 93.59375 243.441406 172.40625 293.238281 206.402344 C 294.527344 207.285156 295.003906 208.960938 294.355469 210.390625 C 276.683594 249.425781 263.394531 290.375 254.84375 332.105469 C 254.535156 333.597656 253.21875 334.675781 251.691406 334.675781 Z M 125.722656 328.238281 L 249.074219 328.238281 C 257.554688 287.800781 270.441406 248.105469 287.402344 210.167969 C 240.089844 176.222656 214.222656 104.0625 194.308594 35.722656 L 194.308594 225.476562 C 203.484375 228.429688 209.902344 237.058594 209.902344 246.910156 C 209.902344 259.328125 199.804688 269.433594 187.402344 269.433594 C 174.992188 269.433594 164.898438 259.328125 164.898438 246.910156 C 164.898438 237.058594 171.308594 228.429688 180.484375 225.476562 L 180.484375 35.722656 C 160.574219 104.0625 134.707031 176.222656 87.398438 210.167969 C 104.355469 248.105469 117.242188 287.800781 125.722656 328.238281 " fill-opacity="1" fill-rule="nonzero"/></g></svg>