<svg xmlns="http://www.w3.org/2000/svg" xmlns:xlink="http://www.w3.org/1999/xlink" width="500" zoomAndPan="magnify" viewBox="0 0 375 374.999991" height="500" preserveAspectRatio="xMidYMid meet" version="1.0"><defs><g/><clipPath id="0a1e72d6e0"><path d="M 138.835938 212 L 236.117188 212 L 236.117188 236.921875 L 138.835938 236.921875 Z M 138.835938 212 " clip-rule="nonzero"/></clipPath><clipPath id="43f13c1bf9"><path d="M 119.601562 0.0820312 L 255.339844 0.0820312 L 255.339844 211.554688 L 119.601562 211.554688 Z M 119.601562 0.0820312 " clip-rule="nonzero"/></clipPath></defs><g clip-path="url(#0a1e72d6e0)"><path fill="#cba585" d="M 234.070312 236.921875 L 140.871094 236.921875 C 140.253906 236.921875 139.667969 236.640625 139.28125 236.15625 C 138.898438 235.675781 138.75 235.042969 138.886719 234.441406 L 143.5625 213.707031 C 143.773438 212.78125 144.597656 212.125 145.546875 212.125 L 229.390625 212.125 C 230.339844 212.125 231.164062 212.78125 231.375 213.707031 L 236.050781 234.441406 C 236.1875 235.042969 236.042969 235.675781 235.65625 236.15625 C 235.273438 236.640625 234.6875 236.921875 234.070312 236.921875 Z M 143.414062 232.855469 L 231.523438 232.855469 L 227.765625 216.191406 L 147.175781 216.191406 L 143.414062 232.855469 " fill-opacity="1" fill-rule="nonzero"/></g><g clip-path="url(#43f13c1bf9)"><path fill="#cba585" d="M 228.160156 211.515625 L 146.78125 211.515625 C 145.816406 211.515625 144.980469 210.835938 144.789062 209.890625 C 139.378906 183.515625 130.964844 157.636719 119.78125 132.964844 C 119.375 132.066406 119.671875 131.003906 120.488281 130.445312 C 152.003906 108.960938 168.476562 59.152344 181.386719 13.820312 C 179.910156 12.269531 179.066406 10.195312 179.066406 8.039062 C 179.066406 4.566406 181.15625 1.503906 184.382812 0.226562 C 185.011719 -0.0195312 185.71875 0.0546875 186.277344 0.433594 C 186.835938 0.8125 187.164062 1.441406 187.164062 2.117188 L 187.164062 144.074219 C 187.164062 145.046875 186.476562 145.882812 185.519531 146.074219 C 180.757812 146.992188 177.300781 151.191406 177.300781 156.046875 C 177.300781 161.65625 181.859375 166.214844 187.472656 166.214844 C 193.078125 166.214844 197.644531 161.65625 197.644531 156.046875 C 197.644531 151.191406 194.1875 146.992188 189.421875 146.074219 C 188.46875 145.882812 187.777344 145.046875 187.777344 144.074219 L 187.777344 2.117188 C 187.777344 1.441406 188.109375 0.8125 188.664062 0.433594 C 189.222656 0.0546875 189.933594 -0.0195312 190.558594 0.226562 C 193.789062 1.503906 195.875 4.566406 195.875 8.035156 C 195.875 10.195312 195.027344 12.269531 193.558594 13.820312 C 206.460938 59.152344 222.9375 108.960938 254.453125 130.445312 C 255.269531 131.003906 255.570312 132.066406 255.160156 132.964844 C 243.976562 157.636719 235.566406 183.515625 230.152344 209.890625 C 229.957031 210.835938 229.125 211.515625 228.160156 211.515625 Z M 148.4375 207.449219 L 226.503906 207.449219 C 231.871094 181.890625 240.027344 156.800781 250.757812 132.828125 C 220.816406 111.371094 204.445312 65.769531 191.84375 22.574219 L 191.84375 142.5 C 197.652344 144.367188 201.710938 149.820312 201.710938 156.046875 C 201.710938 163.894531 195.320312 170.28125 187.472656 170.28125 C 179.617188 170.28125 173.230469 163.894531 173.230469 156.046875 C 173.230469 149.820312 177.289062 144.367188 183.09375 142.5 L 183.09375 22.574219 C 170.492188 65.769531 154.125 111.371094 124.183594 132.828125 C 134.914062 156.800781 143.070312 181.890625 148.4375 207.449219 " fill-opacity="1" fill-rule="nonzero"/></g><g fill="#cba585" fill-opacity="1"><g transform="translate(38.396871, 337.453051)"><g><path d="M 60.039062 -26.082031 C 57.800781 -25.929688 50.082031 -25.773438 41.441406 -25.621094 L 41.59375 -30.171875 L 41.980469 -33.414062 C 42.136719 -34.109375 41.902344 -34.574219 41.210938 -34.726562 C 39.28125 -35.265625 35.113281 -35.808594 32.644531 -35.808594 C 31.949219 -35.808594 31.792969 -35.574219 31.640625 -35.34375 L 31.101562 -33.492188 C 32.71875 -32.953125 34.417969 -31.949219 35.191406 -30.945312 L 35.265625 -25.542969 C 24.464844 -25.390625 13.8125 -25.3125 11.421875 -25.3125 C 8.875 -25.3125 5.246094 -25.621094 2.546875 -26.160156 L 1.929688 -25.003906 C 1.851562 -24.695312 1.929688 -24.386719 2.160156 -24.15625 C 4.167969 -22.457031 7.101562 -20.683594 10.03125 -19.679688 C 11.960938 -20.296875 16.050781 -21.066406 18.058594 -21.222656 C 22.300781 -21.453125 56.644531 -21.917969 62.046875 -21.839844 C 64.359375 -21.839844 69.144531 -21.683594 71.152344 -21.453125 C 72 -21.839844 73.003906 -23.226562 73.003906 -24.695312 C 73.003906 -25.390625 72.617188 -25.929688 71.921875 -26.082031 C 70.070312 -26.699219 65.902344 -27.242188 62.972656 -27.320312 Z M 37.273438 -17.132812 C 27.320312 -17.132812 19.988281 -12.039062 19.988281 -4.554688 C 19.988281 3.394531 27.320312 8.71875 37.273438 8.71875 C 47.304688 8.71875 54.558594 3.394531 54.558594 -4.554688 C 54.558594 -12.039062 47.304688 -17.132812 37.273438 -17.132812 Z M 37.273438 3.9375 C 31.175781 3.9375 26.625 0.773438 26.625 -4.554688 C 26.625 -9.800781 31.175781 -13.042969 37.273438 -13.042969 C 43.445312 -13.042969 47.921875 -9.800781 47.921875 -4.554688 C 47.921875 0.773438 43.445312 3.9375 37.273438 3.9375 Z M 9.335938 -31.949219 C 9.570312 -31.71875 9.800781 -31.71875 10.265625 -31.792969 C 20.140625 -33.414062 29.789062 -36.191406 38.429688 -39.898438 L 62.429688 -34.496094 C 63.203125 -34.339844 64.050781 -34.265625 64.589844 -34.496094 C 65.59375 -34.804688 66.289062 -36.117188 66.136719 -37.117188 C 66.058594 -37.582031 65.59375 -38.121094 64.746094 -38.585938 C 63.589844 -39.28125 61.117188 -40.207031 59.34375 -40.746094 L 54.25 -40.515625 L 44.0625 -42.597656 C 48.617188 -44.992188 52.785156 -47.613281 56.335938 -50.46875 L 58.648438 -52.628906 C 59.035156 -52.9375 59.035156 -53.480469 58.496094 -53.789062 C 57.722656 -54.171875 55.410156 -55.253906 54.25 -55.71875 C 53.710938 -55.871094 53.09375 -55.871094 52.628906 -55.71875 L 49.15625 -54.328125 C 44.835938 -54.097656 25.082031 -53.710938 21.375 -53.789062 C 19.214844 -53.789062 16.050781 -53.941406 13.660156 -54.40625 L 13.117188 -53.246094 C 12.964844 -52.9375 13.042969 -52.707031 13.351562 -52.476562 C 15.203125 -51.007812 17.75 -49.621094 20.21875 -48.773438 C 21.839844 -49.390625 25.082031 -49.929688 26.777344 -50.082031 C 29.402344 -50.238281 40.359375 -50.46875 46.535156 -50.546875 C 36.964844 -43.832031 23.691406 -38.046875 8.71875 -33.800781 C 8.335938 -33.644531 8.257812 -33.335938 8.488281 -32.953125 Z M 24.230469 -63.742188 C 24.078125 -63.511719 24.078125 -63.355469 24.230469 -63.125 C 25.699219 -61.195312 27.859375 -59.265625 29.632812 -58.339844 C 30.171875 -58.03125 30.480469 -58.03125 31.410156 -58.03125 C 34.882812 -58.339844 41.285156 -58.574219 45.609375 -58.574219 C 46.070312 -58.574219 46.457031 -58.648438 46.765625 -59.113281 C 47.226562 -59.730469 47.304688 -61.582031 46.996094 -62.355469 C 46.765625 -62.894531 46.457031 -63.125 45.683594 -63.125 C 40.050781 -63.046875 32.027344 -63.28125 24.773438 -64.515625 Z M 24.230469 -63.742188 "/></g></g></g><g fill="#cba585" fill-opacity="1"><g transform="translate(112.943769, 337.453051)"><g><path d="M 63.589844 -43.371094 L 58.496094 -43.136719 L 58.496094 -57.957031 L 58.726562 -62.121094 C 58.726562 -62.972656 58.496094 -63.511719 57.722656 -63.820312 C 55.410156 -64.746094 50.316406 -65.828125 47.304688 -65.902344 C 46.6875 -65.902344 46.457031 -65.828125 46.300781 -65.519531 L 45.683594 -63.355469 C 48.308594 -62.429688 50.777344 -60.964844 52.011719 -59.34375 L 52.011719 -36.347656 C 52.011719 -33.492188 52.167969 -27.9375 52.628906 -25.542969 L 56.488281 -25.542969 C 57.644531 -28.320312 58.496094 -33.722656 58.496094 -38.121094 L 58.496094 -39.203125 L 71.535156 -39.433594 C 72.15625 -39.433594 72.847656 -39.589844 73.3125 -39.972656 C 73.773438 -40.359375 74.238281 -41.59375 74.238281 -43.0625 C 74.160156 -43.753906 73.699219 -44.296875 72.925781 -44.449219 C 71.535156 -44.757812 68.375 -44.914062 66.058594 -44.835938 Z M 52.628906 1.929688 C 48.230469 2.160156 34.882812 2.238281 29.324219 2.160156 C 28.398438 2.160156 27.9375 1.773438 27.9375 0.773438 L 27.9375 -6.328125 L 57.261719 -6.714844 C 57.644531 -7.101562 58.03125 -8.027344 58.03125 -9.027344 C 58.03125 -9.335938 57.878906 -9.570312 57.570312 -9.800781 L 56.179688 -10.496094 C 56.796875 -12.347656 57.570312 -16.207031 57.722656 -18.445312 L 58.726562 -20.449219 C 58.882812 -20.914062 58.882812 -21.300781 58.574219 -21.609375 C 57.800781 -21.992188 56.027344 -22.84375 55.175781 -23.226562 C 54.714844 -23.382812 54.25 -23.382812 53.863281 -23.226562 L 51.394531 -22.070312 C 46.765625 -21.839844 28.554688 -21.683594 24.617188 -21.683594 C 22.6875 -21.683594 19.523438 -21.917969 17.363281 -22.378906 L 16.898438 -21.453125 C 16.824219 -21.144531 16.824219 -20.914062 17.132812 -20.605469 C 18.828125 -19.292969 21.066406 -17.828125 23.535156 -16.898438 C 25.464844 -17.441406 28.398438 -17.980469 29.941406 -18.058594 C 32.875 -18.210938 46.070312 -18.367188 50.777344 -18.289062 C 50.855469 -16.667969 50.777344 -12.425781 50.625 -10.648438 L 49.3125 -10.265625 C 46.378906 -10.109375 33.105469 -9.953125 28.089844 -9.953125 C 25.929688 -10.1875 20.371094 -10.339844 18.058594 -10.339844 C 17.59375 -10.339844 17.285156 -10.1875 17.210938 -9.878906 L 16.976562 -8.335938 C 18.675781 -7.871094 20.296875 -7.175781 21.300781 -6.25 L 21.300781 1.003906 C 21.300781 4.554688 22.84375 6.097656 27.320312 6.097656 L 61.042969 5.863281 C 61.429688 5.863281 61.8125 5.789062 62.121094 5.480469 C 62.507812 5.09375 62.972656 4.011719 62.972656 2.546875 C 62.972656 1.929688 62.507812 1.464844 61.890625 1.3125 C 60.347656 0.925781 57.105469 0.695312 54.945312 0.773438 Z M 39.511719 -43.445312 C 39.511719 -52.246094 32.335938 -58.417969 22.535156 -58.417969 C 12.65625 -58.417969 5.402344 -52.246094 5.402344 -43.445312 C 5.402344 -34.574219 12.65625 -28.398438 22.535156 -28.398438 C 32.335938 -28.398438 39.511719 -34.574219 39.511719 -43.445312 Z M 11.960938 -43.445312 C 11.960938 -49.773438 16.515625 -53.632812 22.535156 -53.632812 C 28.554688 -53.632812 33.105469 -49.773438 33.105469 -43.445312 C 33.105469 -37.117188 28.554688 -33.261719 22.535156 -33.261719 C 16.515625 -33.261719 11.960938 -37.117188 11.960938 -43.445312 Z M 11.960938 -43.445312 "/></g></g></g><g fill="#cba585" fill-opacity="1"><g transform="translate(187.490666, 337.453051)"><g><path d="M 63.589844 -40.824219 L 58.648438 -40.589844 L 58.648438 -57.957031 L 58.882812 -62.121094 C 58.957031 -62.972656 58.648438 -63.511719 57.957031 -63.820312 C 55.5625 -64.746094 50.46875 -65.828125 47.460938 -65.902344 C 46.84375 -65.902344 46.609375 -65.828125 46.535156 -65.519531 L 45.839844 -63.355469 C 48.539062 -62.429688 50.933594 -60.964844 52.246094 -59.34375 L 52.246094 -33.027344 C 52.246094 -29.710938 52.398438 -23.074219 52.785156 -20.140625 L 56.566406 -20.140625 C 57.800781 -23.84375 58.648438 -30.097656 58.648438 -34.957031 L 58.648438 -36.65625 L 71.535156 -36.886719 C 72.15625 -36.886719 72.847656 -37.042969 73.3125 -37.425781 C 73.773438 -37.8125 74.238281 -39.046875 74.238281 -40.515625 C 74.160156 -41.210938 73.699219 -41.75 72.925781 -41.980469 C 71.535156 -42.289062 68.375 -42.445312 66.058594 -42.367188 Z M 41.902344 -20.914062 C 32.410156 -20.914062 25.15625 -15.355469 25.15625 -7.023438 C 25.15625 1.699219 32.410156 7.640625 41.902344 7.640625 C 51.472656 7.640625 58.648438 1.699219 58.648438 -7.023438 C 58.648438 -15.355469 51.472656 -20.914062 41.902344 -20.914062 Z M 41.902344 2.390625 C 36.269531 2.390625 32.027344 -1.082031 32.027344 -7.023438 C 32.027344 -12.886719 36.269531 -16.4375 41.902344 -16.4375 C 47.613281 -16.4375 51.859375 -12.886719 51.859375 -7.023438 C 51.859375 -1.082031 47.613281 2.390625 41.902344 2.390625 Z M 39.355469 -27.394531 C 39.898438 -26.855469 40.746094 -26.238281 41.285156 -26.082031 C 42.289062 -25.773438 43.832031 -26.546875 44.21875 -27.628906 C 44.449219 -28.089844 44.296875 -28.863281 43.679688 -29.941406 C 42.984375 -31.332031 41.132812 -33.878906 39.742188 -35.5 L 36.269531 -36.65625 L 27.007812 -44.449219 C 28.707031 -47.535156 30.019531 -50.546875 30.867188 -53.554688 C 30.945312 -54.019531 31.101562 -54.636719 31.101562 -55.332031 C 31.101562 -55.949219 30.714844 -56.566406 30.019531 -56.953125 C 28.320312 -57.957031 23.769531 -59.574219 20.914062 -60.039062 C 20.371094 -60.117188 20.140625 -60.039062 19.988281 -59.730469 L 18.984375 -57.878906 C 20.835938 -56.875 22.6875 -55.175781 23.382812 -53.710938 C 20.683594 -43.910156 13.195312 -32.644531 2.777344 -23.613281 C 2.46875 -23.304688 2.46875 -22.996094 2.625 -22.84375 L 3.703125 -21.839844 C 3.9375 -21.683594 4.167969 -21.683594 4.554688 -21.917969 C 13.042969 -27.242188 19.910156 -33.800781 24.695312 -40.746094 Z M 39.355469 -27.394531 "/></g></g></g><g fill="#cba585" fill-opacity="1"><g transform="translate(262.037564, 337.453051)"><g><path d="M 60.039062 -8.027344 C 58.804688 -7.949219 56.027344 -7.871094 52.320312 -7.792969 L 53.324219 -17.59375 L 53.941406 -20.683594 C 54.097656 -21.300781 53.863281 -21.683594 53.171875 -21.992188 C 51.242188 -22.84375 47.382812 -23.691406 44.835938 -23.921875 C 44.296875 -24 43.988281 -23.84375 43.910156 -23.535156 L 43.214844 -21.839844 C 44.914062 -21.066406 46.378906 -19.832031 47.074219 -18.675781 L 46.609375 -7.640625 L 30.558594 -7.410156 L 30.636719 -15.820312 L 30.867188 -19.136719 C 30.867188 -19.832031 30.714844 -20.296875 30.097656 -20.449219 C 28.011719 -21.066406 23.769531 -21.53125 21.222656 -21.53125 C 20.527344 -21.53125 20.296875 -21.375 20.296875 -21.144531 L 19.910156 -19.214844 C 21.609375 -18.753906 23.304688 -17.828125 24.230469 -16.976562 L 24.617188 -7.332031 C 18.210938 -7.253906 13.042969 -7.253906 11.421875 -7.253906 C 8.875 -7.253906 5.246094 -7.5625 2.546875 -8.027344 L 1.929688 -6.867188 C 1.851562 -6.558594 1.929688 -6.328125 2.160156 -6.097656 C 4.167969 -4.398438 7.101562 -2.546875 10.03125 -1.621094 C 11.960938 -2.238281 16.050781 -3.007812 18.058594 -3.164062 C 22.300781 -3.394531 56.644531 -3.78125 62.046875 -3.78125 C 64.359375 -3.78125 69.144531 -3.628906 71.152344 -3.394531 C 72 -3.78125 73.003906 -5.09375 73.003906 -6.636719 C 73.003906 -7.332031 72.617188 -7.792969 71.921875 -8.027344 C 70.070312 -8.644531 65.902344 -9.183594 62.972656 -9.261719 Z M 10.339844 -29.941406 C 10.265625 -29.710938 10.339844 -29.480469 10.574219 -29.246094 C 12.269531 -27.703125 14.972656 -26.007812 17.363281 -25.15625 C 18.90625 -25.699219 21.917969 -26.238281 23.535156 -26.316406 C 27.085938 -26.546875 50.699219 -26.855469 54.636719 -26.855469 C 56.488281 -26.855469 60.808594 -26.777344 62.355469 -26.546875 C 63.046875 -26.933594 63.972656 -28.246094 63.972656 -29.789062 C 63.972656 -30.25 63.511719 -30.714844 63.046875 -30.945312 C 61.503906 -31.484375 57.878906 -31.871094 55.410156 -31.949219 L 52.785156 -30.792969 C 52.320312 -30.792969 51.703125 -30.714844 50.855469 -30.714844 L 51.9375 -44.605469 L 52.246094 -47.921875 C 52.246094 -48.617188 52.011719 -49.082031 51.320312 -49.3125 C 49.464844 -49.929688 45.300781 -50.390625 42.828125 -50.390625 C 42.210938 -50.46875 41.902344 -50.238281 41.902344 -50.007812 L 41.441406 -48.15625 C 43.136719 -47.613281 44.835938 -46.609375 45.609375 -45.609375 L 45.300781 -30.558594 L 30.328125 -30.328125 L 30.019531 -42.136719 L 30.171875 -45.453125 C 30.25 -46.148438 30.019531 -46.535156 29.402344 -46.84375 C 27.550781 -47.613281 23.691406 -48.464844 21.222656 -48.695312 C 20.605469 -48.695312 20.371094 -48.539062 20.296875 -48.308594 L 19.601562 -46.457031 C 21.375 -45.683594 22.917969 -44.449219 23.769531 -43.214844 L 24.695312 -30.328125 L 18.753906 -30.25 C 16.824219 -30.25 13.351562 -30.558594 10.882812 -31.023438 Z M 52.9375 -57.027344 C 48.617188 -56.796875 22.300781 -56.566406 18.445312 -56.566406 C 16.515625 -56.566406 13.117188 -56.875 10.648438 -57.261719 L 10.109375 -56.257812 C 10.03125 -56.027344 10.03125 -55.792969 10.265625 -55.5625 C 12.039062 -54.019531 14.738281 -52.320312 17.132812 -51.472656 C 18.597656 -51.9375 21.683594 -52.554688 23.226562 -52.628906 C 26.933594 -52.863281 50.855469 -53.09375 54.792969 -53.09375 C 56.644531 -53.09375 60.964844 -53.015625 62.585938 -52.863281 C 63.125 -53.246094 64.050781 -54.558594 64.050781 -56.101562 C 64.050781 -56.566406 63.742188 -57.027344 63.203125 -57.183594 C 61.660156 -57.722656 58.03125 -58.1875 55.640625 -58.265625 Z M 52.9375 -57.027344 "/></g></g></g></svg>