<svg version="1.1" id="Layer_1" xmlns="http://www.w3.org/2000/svg" xmlns:xlink="http://www.w3.org/1999/xlink" x="0px" y="0px"
	 width="100%" viewBox="0 0 425 425" enable-background="new 0 0 425 425" xml:space="preserve">
<path fill="#FEFEFE" opacity="1.000000" stroke="none" 
	d="
M295.000000,426.000000 
	C196.666672,426.000000 98.833359,426.000000 1.000026,426.000000 
	C1.000018,284.333374 1.000018,142.666718 1.000009,1.000064 
	C142.666626,1.000043 284.333252,1.000043 425.999908,1.000021 
	C425.999939,142.666611 425.999939,284.333221 425.999969,425.999908 
	C382.500000,426.000000 339.000000,426.000000 295.000000,426.000000 
M244.299454,381.038452 
	C249.524338,383.202759 254.696762,385.505585 259.983215,387.507355 
	C282.472198,396.022888 301.189423,391.467438 317.331879,373.567749 
	C330.907745,358.514069 342.199768,341.837280 351.290833,323.770172 
	C355.962646,314.485687 359.552826,304.656952 363.615570,295.112274 
	C300.312195,265.793518 298.268982,184.091385 353.193146,151.191513 
	C352.884674,150.632523 352.639984,150.016937 352.252197,149.511002 
	C331.252991,122.115448 302.955383,111.438774 269.549561,116.163689 
	C255.625732,118.133087 242.417160,124.888496 228.732849,128.962082 
	C223.609497,130.487213 217.738556,132.064026 212.771713,130.996552 
	C203.587555,129.022690 194.709625,125.395813 185.900070,121.955727 
	C168.680420,115.231560 151.246552,113.866974 133.606369,119.595924 
	C96.692253,131.584396 76.654053,158.358078 68.710396,195.183197 
	C63.820919,217.849808 65.257248,240.545135 69.831734,263.132233 
	C78.434563,305.609772 97.452202,342.835510 126.723198,374.698578 
	C138.877121,387.928772 153.606384,395.723602 172.252182,390.650421 
	C179.757202,388.608429 186.966110,385.426819 194.230957,382.563843 
	C210.480652,376.160065 226.876816,375.088562 244.299454,381.038452 
M275.916534,28.346613 
	C235.711456,40.662613 207.448486,78.478676 214.182297,110.947502 
	C256.324432,114.827095 293.249756,65.162415 286.485779,26.708439 
	C283.245880,27.206631 279.992401,27.706909 275.916534,28.346613 
z"/>
<path fill="#010101" opacity="1.000000" stroke="none" 
	d="
M243.917465,380.927795 
	C226.876816,375.088562 210.480652,376.160065 194.230957,382.563843 
	C186.966110,385.426819 179.757202,388.608429 172.252182,390.650421 
	C153.606384,395.723602 138.877121,387.928772 126.723198,374.698578 
	C97.452202,342.835510 78.434563,305.609772 69.831734,263.132233 
	C65.257248,240.545135 63.820919,217.849808 68.710396,195.183197 
	C76.654053,158.358078 96.692253,131.584396 133.606369,119.595924 
	C151.246552,113.866974 168.680420,115.231560 185.900070,121.955727 
	C194.709625,125.395813 203.587555,129.022690 212.771713,130.996552 
	C217.738556,132.064026 223.609497,130.487213 228.732849,128.962082 
	C242.417160,124.888496 255.625732,118.133087 269.549561,116.163689 
	C302.955383,111.438774 331.252991,122.115448 352.252197,149.511002 
	C352.639984,150.016937 352.884674,150.632523 353.193146,151.191513 
	C298.268982,184.091385 300.312195,265.793518 363.615570,295.112274 
	C359.552826,304.656952 355.962646,314.485687 351.290833,323.770172 
	C342.199768,341.837280 330.907745,358.514069 317.331879,373.567749 
	C301.189423,391.467438 282.472198,396.022888 259.983215,387.507355 
	C254.696762,385.505585 249.524338,383.202759 243.917465,380.927795 
z"/>
<path fill="#050505" opacity="1.000000" stroke="none" 
	d="
M276.327728,28.276901 
	C279.992401,27.706909 283.245880,27.206631 286.485779,26.708439 
	C293.249756,65.162415 256.324432,114.827095 214.182297,110.947502 
	C207.448486,78.478676 235.711456,40.662613 276.327728,28.276901 
z"/>
</svg>