<svg version="1.1" id="Layer_1" xmlns="http://www.w3.org/2000/svg" xmlns:xlink="http://www.w3.org/1999/xlink" x="0px" y="0px"
	 width="100%" viewBox="0 0 500 500" enable-background="new 0 0 500 500" xml:space="preserve">
<path fill="#000000" opacity="1.000000" stroke="none" 
	d="
M276.000000,501.000000 
	C184.000015,501.000000 92.500046,501.000000 1.000049,501.000000 
	C1.000033,334.333405 1.000033,167.666794 1.000016,1.000139 
	C167.666565,1.000092 334.333130,1.000092 500.999756,1.000046 
	C500.999847,167.666519 500.999847,334.333038 500.999939,500.999786 
	C426.166656,501.000000 351.333344,501.000000 276.000000,501.000000 
M439.853973,236.909180 
	C439.244751,232.677490 438.499512,228.460190 438.049469,224.211639 
	C435.939117,204.288895 429.803864,185.505234 421.141510,167.622208 
	C409.442535,143.470200 392.896027,123.021225 372.317078,105.711296 
	C356.059387,92.036209 337.997742,81.548820 318.186523,74.223701 
	C294.617920,65.509308 270.284607,61.696857 244.985184,62.792469 
	C228.325424,63.513931 212.106903,65.890900 196.361145,70.936424 
	C160.718643,82.357605 130.756943,102.173889 106.914139,131.408096 
	C82.321930,161.561172 68.623817,196.030121 65.255569,234.419739 
	C63.563103,253.709610 64.478737,273.243469 69.232819,292.227631 
	C79.005211,331.250854 98.055481,364.725861 128.722809,391.334991 
	C143.975555,404.569275 160.646973,415.289062 179.253189,423.090973 
	C202.373016,432.785492 226.506210,437.663086 251.505981,437.875000 
	C260.062744,437.947510 268.648865,436.847656 277.190399,435.977753 
	C298.799164,433.776978 319.163940,427.131378 338.306580,417.159058 
	C358.198608,406.796265 375.877533,393.463776 391.056580,376.648682 
	C408.499237,357.326050 421.517303,335.602234 430.041870,311.116669 
	C438.306122,287.378937 440.797455,262.827820 439.853973,236.909180 
z"/>
<path fill="#047854" opacity="1.000000" stroke="none" 
	d="
M439.907104,237.375488 
	C440.797455,262.827820 438.306122,287.378937 430.041870,311.116669 
	C421.517303,335.602234 408.499237,357.326050 391.056580,376.648682 
	C375.877533,393.463776 358.198608,406.796265 338.306580,417.159058 
	C319.163940,427.131378 298.799164,433.776978 277.190399,435.977753 
	C268.648865,436.847656 260.062744,437.947510 251.505981,437.875000 
	C226.506210,437.663086 202.373016,432.785492 179.253189,423.090973 
	C160.646973,415.289062 143.975555,404.569275 128.722809,391.334991 
	C98.055481,364.725861 79.005211,331.250854 69.232819,292.227631 
	C64.478737,273.243469 63.563103,253.709610 65.255569,234.419739 
	C68.623817,196.030121 82.321930,161.561172 106.914139,131.408096 
	C130.756943,102.173889 160.718643,82.357605 196.361145,70.936424 
	C212.106903,65.890900 228.325424,63.513931 244.985184,62.792469 
	C270.284607,61.696857 294.617920,65.509308 318.186523,74.223701 
	C337.997742,81.548820 356.059387,92.036209 372.317078,105.711296 
	C392.896027,123.021225 409.442535,143.470200 421.141510,167.622208 
	C429.803864,185.505234 435.939117,204.288895 438.049469,224.211639 
	C438.499512,228.460190 439.244751,232.677490 439.907104,237.375488 
M228.204346,430.206696 
	C249.530838,433.296906 270.746643,432.332977 291.707489,427.648499 
	C387.235687,406.299194 448.354279,314.265442 431.226379,217.817490 
	C414.155151,121.688896 321.847992,52.445366 219.312439,71.425186 
	C108.800774,91.881439 42.940323,205.540390 81.263214,310.748749 
	C106.001862,378.664124 155.916412,418.127655 228.204346,430.206696 
z"/>
<path fill="#F3F9F7" opacity="1.000000" stroke="none" 
	d="
M227.760834,430.172302 
	C155.916412,418.127655 106.001862,378.664124 81.263214,310.748749 
	C42.940323,205.540390 108.800774,91.881439 219.312439,71.425186 
	C321.847992,52.445366 414.155151,121.688896 431.226379,217.817490 
	C448.354279,314.265442 387.235687,406.299194 291.707489,427.648499 
	C270.746643,432.332977 249.530838,433.296906 227.760834,430.172302 
M94.574287,327.799103 
	C129.709839,399.111298 208.636597,438.976105 286.382080,422.445801 
	C355.608582,407.726807 402.326294,365.475189 421.293457,297.285736 
	C440.185791,229.365341 422.516083,169.115967 370.978333,120.706169 
	C331.513458,83.636475 283.533356,69.373947 229.729233,75.884766 
	C189.808487,80.715546 155.329834,97.642326 127.487709,126.420959 
	C73.999054,181.708771 61.827229,257.643341 94.574287,327.799103 
z"/>
<path fill="#037853" opacity="1.000000" stroke="none" 
	d="
M94.384232,327.476624 
	C61.827229,257.643341 73.999054,181.708771 127.487709,126.420959 
	C155.329834,97.642326 189.808487,80.715546 229.729233,75.884766 
	C283.533356,69.373947 331.513458,83.636475 370.978333,120.706169 
	C422.516083,169.115967 440.185791,229.365341 421.293457,297.285736 
	C402.326294,365.475189 355.608582,407.726807 286.382080,422.445801 
	C208.636597,438.976105 129.709839,399.111298 94.384232,327.476624 
M362.872131,173.876434 
	C362.872131,173.876434 363.141632,174.134491 363.067383,174.843628 
	C361.021179,178.645309 358.857727,182.390732 356.992462,186.279190 
	C356.339813,187.639709 355.759644,189.641876 356.288940,190.850784 
	C357.999939,194.758865 360.241882,198.434464 362.618622,202.826782 
	C366.780060,195.664871 370.758362,189.195709 374.326202,182.507584 
	C375.942688,179.477448 377.966217,178.816284 381.125092,179.172821 
	C386.819580,179.815598 392.554260,180.102585 398.936829,180.588821 
	C397.599762,177.798141 396.445740,175.789749 395.650360,173.648148 
	C393.861084,168.830322 390.584595,166.753342 385.403656,166.920547 
	C381.853912,167.035110 378.278809,166.363373 373.668976,165.949142 
	C378.121887,162.233566 381.733643,159.219833 385.480438,156.093460 
	C382.387177,152.072739 379.680023,148.553925 376.807159,144.819656 
	C370.695312,149.323090 364.902802,153.479202 359.235046,157.799042 
	C353.603912,162.090988 348.098236,166.547577 342.390564,171.047852 
	C345.440826,174.990662 348.033264,178.341644 350.731262,181.829117 
	C354.991486,178.882431 358.797546,176.249893 362.872131,173.876434 
M173.309082,174.805267 
	C148.576462,201.582703 138.967300,233.290085 145.473404,268.856171 
	C156.320587,328.153168 210.631577,365.548798 270.388824,356.110657 
	C341.886536,344.818268 382.324524,263.350067 348.152679,199.444138 
	C312.781891,133.296066 227.154282,120.950546 173.309082,174.805267 
M271.999878,102.206367 
	C274.257721,94.293327 271.721771,88.857727 263.684937,88.086052 
	C253.741608,87.131325 243.636856,87.857574 233.304810,87.857574 
	C233.957840,102.209930 234.588364,116.067703 235.205750,129.636810 
	C245.632919,129.636810 255.738266,130.199005 265.741150,129.429474 
	C271.905853,128.955231 275.958344,122.466270 274.496033,116.554329 
	C273.641876,113.101189 271.224426,110.034729 269.327911,106.449448 
	C269.857788,105.656631 270.773346,104.286812 271.999878,102.206367 
M218.646759,133.096741 
	C223.635773,132.467514 228.624802,131.838303 234.804520,131.058914 
	C230.038727,126.821808 226.494003,123.571777 222.837219,120.453171 
	C220.319290,118.305794 219.564926,116.384819 220.985275,112.842941 
	C225.030685,102.755051 218.567032,93.807335 207.651917,93.848701 
	C196.697159,93.890221 187.903488,99.948059 178.184219,104.216164 
	C183.828705,117.777550 189.287903,130.893799 194.858215,144.277023 
	C199.553238,141.693298 203.698486,139.412109 207.865936,137.118729 
	C206.244034,133.187332 204.870224,129.857346 203.496429,126.527351 
	C203.714035,126.004776 203.931641,125.482201 204.149231,124.959618 
	C206.223785,125.391449 208.602249,125.326340 210.304260,126.367302 
	C213.114975,128.086334 215.488983,130.519394 218.646759,133.096741 
M154.118515,172.290771 
	C154.861267,173.840622 155.604019,175.390457 156.544052,177.351959 
	C161.547195,171.073349 170.807495,166.878494 162.516281,157.308136 
	C165.499344,154.788986 168.228729,152.862442 170.477722,150.481995 
	C172.890060,147.928665 174.907303,147.964203 177.774368,149.780457 
	C179.482880,150.862778 182.298660,151.796082 183.902237,151.114777 
	C187.319138,149.663116 190.270370,147.115372 193.716476,144.813736 
	C180.970917,136.691940 168.735123,128.809677 156.354446,121.161972 
	C155.324875,120.525993 152.920990,120.953766 151.833969,121.779884 
	C147.873535,124.789703 144.310440,128.319565 140.376450,131.368088 
	C138.250931,133.015198 138.133224,134.487549 139.133347,136.796509 
	C144.138794,148.352493 149.001389,159.970367 154.118515,172.290771 
M280.888885,110.348854 
	C280.184540,112.908318 279.583496,115.501762 278.755249,118.020493 
	C276.772736,124.049263 278.925415,128.869034 283.276123,132.818558 
	C289.771301,138.714783 297.612976,141.562119 306.239136,140.124344 
	C309.568604,139.569397 313.792419,137.180878 315.326538,134.378387 
	C320.304688,125.284760 324.226105,115.612610 328.639648,105.977180 
	C323.680786,103.705902 319.521362,101.800789 314.953278,99.708488 
	C313.874054,102.576492 313.058960,105.075554 312.008026,107.471130 
	C309.211761,113.845024 306.548889,120.299835 303.277344,126.425705 
	C302.536469,127.812935 299.087036,129.067581 297.690918,128.476883 
	C295.694946,127.632393 293.651276,125.237625 293.102142,123.122192 
	C292.592346,121.158302 293.863495,118.639656 294.617157,116.457359 
	C297.026337,109.481033 299.559448,102.547493 302.112488,95.407974 
	C297.099579,93.810013 292.584137,92.370628 287.833099,90.856148 
	C285.460632,97.411827 283.261292,103.489029 280.888885,110.348854 
M165.882721,387.543823 
	C174.523224,398.310913 188.717178,400.640320 199.113892,392.997437 
	C208.690414,385.957489 211.148438,371.934113 204.495758,362.293060 
	C196.945419,351.351105 182.868561,348.233765 171.986069,355.093781 
	C161.068497,361.975830 158.402283,374.973816 165.882721,387.543823 
M138.120209,212.411880 
	C138.105072,211.414566 138.135635,210.414139 138.067459,209.420456 
	C137.585327,202.391907 133.825119,197.302292 128.180573,196.003464 
	C121.603401,194.490067 116.796997,196.749542 112.801605,203.271988 
	C111.673882,205.112976 110.899673,207.267685 109.447075,208.783951 
	C108.115204,210.174240 106.087090,210.897537 104.365746,211.914719 
	C103.803337,209.954636 102.308868,207.667282 102.859833,206.098145 
	C104.296959,202.005386 106.630089,198.227234 108.808426,193.923431 
	C107.085747,192.702362 104.829720,191.103241 102.669334,189.571899 
	C94.906548,195.608307 90.871521,206.974487 93.347786,215.669128 
	C94.938644,221.254929 98.626900,224.937439 104.417862,225.904343 
	C110.136818,226.859222 114.394348,224.200119 117.474586,219.521561 
	C118.568176,217.860504 119.140625,215.739838 120.513664,214.409897 
	C122.094017,212.879105 124.297516,211.991638 126.230392,210.824783 
	C126.570969,213.109924 127.899269,215.884888 127.056953,217.583435 
	C124.978577,221.774551 121.904411,225.471878 119.055664,229.622513 
	C119.738754,230.077927 120.922523,230.654495 121.839226,231.515427 
	C125.619812,235.066086 128.413635,233.717133 131.203018,230.090698 
	C135.049988,225.089294 137.800186,219.734009 138.120209,212.411880 
M316.068207,388.728363 
	C314.298126,386.985779 312.528046,385.243195 310.279480,383.029572 
	C316.249908,380.192932 320.822327,378.020508 325.653809,375.725006 
	C324.128326,372.761475 322.885376,370.346832 321.707520,368.058624 
	C316.455048,370.238007 311.796478,372.170959 306.917114,374.195496 
	C305.980255,371.796021 305.274628,369.988770 304.445862,367.866089 
	C310.065704,365.005585 315.431580,362.274353 321.055023,359.412048 
	C319.322144,356.594940 317.885010,354.258606 316.478821,351.972595 
	C307.032745,356.557922 298.111755,360.888336 288.870605,365.374176 
	C293.995117,378.400818 299.070740,391.303223 304.467346,405.021545 
	C315.211761,400.138397 325.539001,395.444855 336.177032,390.610046 
	C334.497437,387.435883 333.124268,384.840820 331.657593,382.069092 
	C326.498199,384.243134 321.626801,386.295807 316.068207,388.728363 
M327.085999,357.417786 
	C333.595490,365.781250 340.104950,374.144714 347.122559,383.161041 
	C356.091583,375.400543 364.669403,367.978577 373.122009,360.664948 
	C370.719116,357.835541 368.828033,355.608734 366.892883,353.330078 
	C361.589478,357.634064 356.848938,361.481232 351.780823,365.594269 
	C350.124634,363.303864 348.738251,361.386505 347.184540,359.237793 
	C351.322083,355.783234 355.112274,352.618683 359.238739,349.173370 
	C357.094269,346.903290 355.202972,344.901276 353.217590,342.799622 
	C348.994232,346.228638 345.050415,349.430695 340.912659,352.790192 
	C339.268768,350.846771 338.008362,349.356720 336.578186,347.665955 
	C341.203125,343.241333 345.610931,339.024445 350.209656,334.624939 
	C347.810913,332.473572 345.751373,330.626434 343.728119,328.811798 
	C335.921204,335.904297 328.474457,342.669617 321.002502,349.457794 
	C323.030853,352.088318 324.859253,354.459564 327.085999,357.417786 
M375.085541,212.817810 
	C375.085541,208.614899 375.085541,204.411987 375.085541,200.137726 
	C366.333832,199.207047 365.126251,200.228195 365.170319,209.349396 
	C365.205658,216.667206 367.860199,223.038239 372.847809,228.308823 
	C378.969208,234.777466 389.658386,233.648071 393.289551,225.582916 
	C395.067322,221.634369 394.164978,216.545013 394.949127,212.054657 
	C395.324280,209.906235 396.801788,207.950302 397.779999,205.907181 
	C399.483276,207.698883 402.198456,209.262405 402.665344,211.332916 
	C403.474030,214.919052 402.889801,218.819290 402.889801,222.935074 
	C405.650696,223.091766 408.223083,223.237762 411.062805,223.398926 
	C413.329193,213.566147 411.600830,204.911987 405.227997,197.481552 
	C401.418793,193.040192 395.212494,191.857162 390.181183,193.949173 
	C384.641296,196.252670 382.971588,200.952301 382.679382,206.393219 
	C382.581940,208.207184 383.251404,210.121902 382.888397,211.847076 
	C382.429932,214.025986 381.274109,216.058182 380.419128,218.153671 
	C378.729462,216.648178 377.039764,215.142670 375.085541,212.817810 
M214.577515,377.019012 
	C212.082428,387.093170 209.587341,397.167358 206.991653,407.647705 
	C211.924438,408.809692 216.219803,409.821503 220.889328,410.921478 
	C222.236023,406.105988 223.474838,401.676300 224.806885,396.913269 
	C230.249939,397.703857 235.570129,398.476593 241.147430,399.286682 
	C241.585724,395.535095 241.943832,392.469818 242.300308,389.418457 
	C236.830307,388.283203 231.892807,387.258453 226.616287,386.163330 
	C227.367645,383.401276 227.911377,381.402527 228.473221,379.337158 
	C234.738098,380.320709 240.575974,381.237183 246.703674,382.199188 
	C247.130005,378.241394 247.493179,374.869781 247.856567,371.496124 
	C237.496506,369.594757 227.584976,367.775726 217.371017,365.901184 
	C216.474289,369.520355 215.643646,372.872772 214.577515,377.019012 
M253.033646,377.502441 
	C253.638626,386.121826 254.311356,394.737152 254.831955,403.361633 
	C255.525024,414.843292 255.489685,414.929840 266.892303,412.808472 
	C268.040924,412.594757 269.641418,410.621307 269.682220,409.418701 
	C269.809540,405.665466 269.288788,401.890259 269.014679,398.059479 
	C274.641327,397.184631 279.822449,396.379059 285.401947,395.511536 
	C284.804169,391.890320 284.302582,388.851929 283.777496,385.670898 
	C278.276855,386.227448 273.223053,386.738800 267.850769,387.282349 
	C267.585663,384.638977 267.378571,382.574036 267.148346,380.278351 
	C273.441162,379.316986 279.285278,378.424194 285.556244,377.466187 
	C284.825836,373.749268 284.169434,370.408875 283.477722,366.888733 
	C273.091583,368.216858 263.098053,369.494751 252.997116,370.786407 
	C252.997116,372.933838 252.997116,374.746338 253.033646,377.502441 
M326.024139,155.388153 
	C328.538452,157.534927 330.825623,160.052460 333.610046,161.758301 
	C341.682831,166.703964 343.235657,166.189453 347.726868,158.076492 
	C347.849060,157.855728 347.717438,157.494461 347.704498,157.206467 
	C338.435547,154.379364 334.030518,150.110489 334.184784,144.119492 
	C334.308777,139.304123 339.502991,133.582031 344.562347,132.687302 
	C350.846466,131.575974 354.733154,134.791489 359.701141,145.388824 
	C362.507874,143.687073 365.283112,142.004395 368.035583,140.335541 
	C364.673889,129.030289 358.001282,121.861076 346.593536,120.039314 
	C337.528503,118.591690 330.033173,121.768646 325.101593,129.511932 
	C319.780090,137.867447 320.079651,146.475067 326.024139,155.388153 
M130.029282,355.199860 
	C132.251724,362.526794 136.948547,367.547791 144.065002,370.357666 
	C152.394302,373.646484 154.082672,372.836975 156.592926,364.237213 
	C147.592133,362.286682 142.331116,357.854401 142.191498,352.104401 
	C142.059677,346.675201 145.882523,341.249054 151.362000,339.773102 
	C153.311127,339.248047 156.130554,338.964783 157.533340,339.979858 
	C161.242523,342.663879 164.394211,346.118347 168.344223,349.804016 
	C169.887192,349.039124 172.483215,347.752228 174.968948,346.519989 
	C171.382812,332.591705 159.127014,324.572418 146.225494,327.253632 
	C134.098160,329.773987 127.463249,340.805237 130.029282,355.199860 
M123.882179,149.319534 
	C117.453568,159.707260 111.024948,170.094986 104.443779,180.729218 
	C107.730110,182.897278 110.475502,184.708450 113.419846,186.650894 
	C115.703598,183.160675 117.847374,179.884399 120.117119,176.415588 
	C129.165939,182.027206 137.847916,187.411316 146.970810,193.068863 
	C149.396713,189.101227 151.665787,185.390106 154.043823,181.500763 
	C144.886429,175.428055 136.376328,169.784576 127.807281,164.102020 
	C130.133484,160.280060 132.175476,156.925049 134.727783,152.731583 
	C130.909058,151.260162 127.576035,149.975891 123.882179,149.319534 
M386.171051,276.961731 
	C384.782104,277.789856 383.458862,279.154388 381.990509,279.334198 
	C378.956818,279.705719 375.845825,279.446136 371.238464,279.446136 
	C374.610535,282.111053 376.644867,284.008240 378.955139,285.468994 
	C381.651886,287.174103 382.264618,289.096954 381.056671,292.057526 
	C380.049988,294.524750 379.569946,297.206909 378.856659,299.793884 
	C379.070862,300.225708 379.285065,300.657532 379.499268,301.089386 
	C386.492188,292.909698 393.266907,293.893402 399.931091,300.416016 
	C400.051941,300.534302 400.418823,300.401276 400.828766,300.375610 
	C400.234314,297.905029 399.887451,295.410461 399.022491,293.110748 
	C397.663513,289.497620 398.243622,286.902557 401.684967,284.764252 
	C403.920044,283.375427 405.749237,281.333405 408.588318,278.863800 
	C403.316986,278.863800 398.436646,280.268463 395.622253,278.459320 
	C392.935944,276.732452 392.406921,271.655731 390.907135,268.060883 
	C390.825989,267.866425 390.538086,267.758240 390.055511,267.384766 
	C388.854706,270.424561 387.707428,273.328857 386.171051,276.961731 
M103.711769,295.145599 
	C103.301170,296.639038 102.890564,298.132507 102.210670,300.605438 
	C106.680702,298.032013 110.117912,294.501953 113.523918,294.531799 
	C116.879456,294.561218 120.203392,298.197418 123.541191,300.251099 
	C119.362312,290.957428 122.884842,284.706207 130.803406,279.998840 
	C130.931137,279.922913 130.819397,279.444153 130.819397,278.937195 
	C126.694908,278.937195 122.554008,278.937195 118.267815,278.937195 
	C116.898994,275.123230 115.580994,271.450836 113.880226,266.711914 
	C112.875900,269.217651 112.080093,270.618408 111.753731,272.121063 
	C110.506111,277.865601 107.548721,280.771637 101.300713,279.208374 
	C99.692566,278.806000 97.898201,279.147888 96.189377,279.147888 
	C98.308098,282.206085 100.640831,284.280212 103.237282,285.942383 
	C107.314026,288.552155 104.084503,291.522583 103.711769,295.145599 
z"/>
<path fill="#F5F6F6" opacity="1.000000" stroke="none" 
	d="
M173.557678,174.556351 
	C227.154282,120.950546 312.781891,133.296066 348.152679,199.444138 
	C382.324524,263.350067 341.886536,344.818268 270.388824,356.110657 
	C210.631577,365.548798 156.320587,328.153168 145.473404,268.856171 
	C138.967300,233.290085 148.576462,201.582703 173.557678,174.556351 
M271.039825,349.290527 
	C275.846161,349.388641 278.051270,346.535034 277.082886,342.332336 
	C275.696014,336.313446 274.365784,329.891083 271.201233,324.756653 
	C265.307861,315.194885 266.192505,306.953522 273.046295,298.701141 
	C274.215546,297.293304 275.288574,295.805084 276.396088,294.346466 
	C282.166046,286.747070 282.463776,282.023407 277.591644,273.798981 
	C276.491394,271.941742 275.344086,270.070526 273.946442,268.438690 
	C268.244537,261.781158 267.952759,254.671875 271.972412,247.171097 
	C277.824341,236.251175 281.578064,225.122818 275.683746,212.787827 
	C281.278107,218.034958 283.176422,224.451294 281.474792,231.599548 
	C280.017609,237.720825 278.037170,243.761719 275.756409,249.631561 
	C272.888275,257.013153 274.595642,263.122864 279.353485,269.071533 
	C288.917999,281.029999 288.799896,285.947266 279.271698,298.051270 
	C278.756348,298.705933 278.246613,299.365021 277.737152,300.024261 
	C270.614532,309.241028 270.207947,314.196045 276.061981,324.114166 
	C280.071411,330.907074 284.832092,337.389038 283.134888,346.138062 
	C290.968140,343.673920 291.916809,342.093872 288.986389,335.008911 
	C287.350952,331.054810 285.102051,327.280334 282.658905,323.750732 
	C278.347534,317.522125 278.368866,311.314545 282.178558,305.080231 
	C284.514771,301.257111 287.222626,297.649078 289.917847,294.060303 
	C293.307434,289.546967 294.170929,284.514465 292.091339,279.469147 
	C290.211700,274.908966 287.901886,270.334015 284.870697,266.482574 
	C279.380646,259.506927 279.332184,252.493286 283.304047,245.135483 
	C288.888580,234.790344 288.096558,224.545776 283.553741,213.929291 
	C284.678253,214.334534 286.048096,214.841827 286.388733,215.739609 
	C288.077393,220.190079 290.736481,224.752304 290.704865,229.258667 
	C290.661621,235.424774 289.028442,241.746170 287.112854,247.690353 
	C284.749023,255.025421 285.508453,261.497772 290.270935,267.379364 
	C303.384552,283.574585 298.965302,288.847961 289.337921,301.491882 
	C282.426117,310.569397 282.432007,314.027496 288.316589,324.000793 
	C291.477814,329.358490 294.228424,334.958405 297.242188,340.594666 
	C302.514313,338.846130 302.941193,338.216461 300.108276,332.537750 
	C298.188354,328.689178 295.615051,325.170563 293.413300,321.457397 
	C291.018250,317.418152 290.270844,313.226501 291.740234,310.152618 
	C295.938995,318.314117 300.481354,327.143524 305.243744,336.400635 
	C308.945007,333.603760 312.027679,331.274323 315.294098,328.806030 
	C313.340698,327.378326 312.046936,326.432739 309.707581,324.722931 
	C312.073334,323.658051 314.186646,321.913513 315.145721,322.407959 
	C320.155640,324.990723 322.397583,321.988983 324.917480,318.152100 
	C322.327606,316.857452 319.857697,315.622803 317.092682,314.240631 
	C321.118408,307.362885 325.357239,313.532471 329.894470,313.871338 
	C330.995972,312.315826 332.281952,310.499756 333.772369,308.394989 
	C330.794159,306.843109 328.214630,305.692963 325.840271,304.213531 
	C322.750458,302.288300 320.807312,302.897400 320.081665,306.462463 
	C319.318329,310.212555 316.997681,310.557434 314.197021,309.094452 
	C310.544006,307.186249 307.071472,304.932526 303.521271,302.827454 
	C299.807434,300.625336 299.326874,298.019257 301.799988,294.320984 
	C305.666962,288.538330 305.271820,282.298798 302.407562,276.234680 
	C300.995392,273.244965 299.339203,270.270294 297.272461,267.709198 
	C291.609467,260.691772 290.635742,253.350113 293.840118,244.875656 
	C297.129730,236.175934 297.079895,227.276489 292.870087,218.686005 
	C292.544067,218.020752 292.413147,217.259903 292.191559,216.543472 
	C294.351257,217.562622 295.943604,218.996216 296.730194,220.784286 
	C300.184052,228.635391 301.803192,237.054626 298.619019,245.083038 
	C295.090424,253.979858 297.278015,261.099304 302.243103,268.421783 
	C304.911377,272.356964 306.635162,276.927917 308.844635,281.181061 
	C309.780304,282.982208 310.467194,285.251984 311.968292,286.352203 
	C315.536530,288.967560 319.522949,291.012299 323.859711,293.597137 
	C323.774719,294.159180 323.513611,295.885620 323.327148,297.118378 
	C328.277466,299.290314 332.767212,301.260193 337.547760,303.357635 
	C338.628571,301.230499 339.557983,299.401337 340.620026,297.311127 
	C335.275482,294.358154 330.392670,291.660309 325.355347,288.877075 
	C325.599182,287.845978 325.932983,286.434479 326.490784,284.075714 
	C330.485657,285.931427 334.085663,287.453491 337.546509,289.244446 
	C343.673157,292.414978 344.929871,291.791748 346.023773,284.869537 
	C339.640167,281.680878 333.312500,278.520142 326.783722,275.258972 
	C326.880280,273.884125 326.981262,272.446106 327.171417,269.738251 
	C332.379181,272.238525 336.903748,274.468445 341.477234,276.593231 
	C348.590790,279.898102 350.150055,278.770569 349.647034,271.363770 
	C345.635254,269.635010 341.840088,268.056305 338.094452,266.367645 
	C335.071686,265.004913 332.233948,262.809692 329.088135,262.246826 
	C324.980194,261.511780 324.570465,259.431915 325.094330,255.800476 
	C327.049957,256.096680 328.947113,256.056091 330.577332,256.695801 
	C334.588562,258.269806 338.405151,260.345428 342.429962,261.878174 
	C350.751099,265.047119 353.082062,263.214294 352.306366,254.387665 
	C352.281982,254.110184 351.935730,253.860977 351.739532,253.598587 
	C351.623596,254.036392 351.507629,254.474197 351.391693,254.912003 
	C346.546997,253.701202 341.627472,252.724945 336.879944,251.209763 
	C332.633514,249.854523 328.701447,247.349625 324.399048,246.383423 
	C320.562836,245.521912 319.700256,243.718979 320.035614,238.728088 
	C325.279205,240.705994 329.756866,242.513535 334.317291,244.080170 
	C338.469727,245.506699 342.653412,247.382935 346.932587,247.735855 
	C350.619781,248.039963 353.466370,245.971603 352.399994,241.068710 
	C351.131073,235.234604 350.731659,229.206406 349.381104,223.395813 
	C340.235321,184.046783 299.602295,147.878098 250.981247,148.551361 
	C202.573212,149.221664 158.561890,185.350388 151.813614,238.937408 
	C150.712845,247.678406 155.560242,248.686081 161.794144,247.248444 
	C165.753418,246.335358 169.316589,243.825760 173.203430,242.442520 
	C176.868713,241.138107 180.725174,240.370926 184.497528,239.367416 
	C184.838379,240.014755 185.179214,240.662094 185.520065,241.309433 
	C184.131409,242.911865 183.042160,245.108047 181.290787,245.991226 
	C177.808823,247.747086 173.837921,248.514267 170.294785,250.172318 
	C164.530655,252.869705 158.838501,255.409088 151.964615,253.298599 
	C151.964615,254.690308 151.938889,255.661621 151.968781,256.631226 
	C152.164734,262.989258 153.632965,264.219513 159.877716,262.388306 
	C163.347443,261.370819 166.536423,259.432953 169.946320,258.163330 
	C172.938370,257.049316 176.062057,256.288788 179.434723,255.280289 
	C179.559128,259.592346 178.987610,261.890625 174.847549,262.405975 
	C172.188293,262.736969 169.752472,264.707581 167.168335,265.832672 
	C162.961136,267.664398 158.714554,269.405609 154.284180,271.269318 
	C155.010910,278.615173 156.459656,279.452026 163.672806,275.992340 
	C164.869171,275.418518 165.967834,274.627289 167.187576,274.118591 
	C170.306259,272.817902 173.467789,271.619934 177.479965,270.038940 
	C177.230408,272.833862 177.092941,274.373291 176.989899,275.527222 
	C170.441605,278.778259 164.261200,281.846619 158.023544,284.943390 
	C158.687088,291.969757 160.597260,292.919983 166.781265,289.164917 
	C168.626755,288.044281 170.425751,286.816772 172.365479,285.887573 
	C177.108963,283.615234 178.174286,284.340210 178.448746,289.192444 
	C173.383911,291.990845 168.548157,294.662689 163.782623,297.295746 
	C166.588669,304.138611 166.708496,304.115387 172.483353,300.895020 
	C175.148148,299.408997 178.028336,298.309174 180.800980,297.038788 
	C180.592621,295.430908 180.388092,293.852722 180.156357,292.064514 
	C186.939896,291.864014 192.198685,289.134979 195.321640,283.646667 
	C198.826004,277.488068 201.893692,271.031464 204.557724,264.463684 
	C206.052475,260.778595 207.107254,256.584381 206.992523,252.659500 
	C206.843704,247.568024 205.258301,242.528595 204.426208,237.444672 
	C203.192566,229.907608 206.726273,220.104965 211.967972,217.141266 
	C206.725220,227.273773 207.435013,237.383698 211.159210,247.251160 
	C213.588715,253.688263 212.744888,259.234589 209.112930,264.708008 
	C207.734589,266.785217 206.429428,268.915161 204.970352,270.933929 
	C198.846268,279.407257 198.488235,288.088959 203.877945,297.034729 
	C204.359161,297.833466 204.728867,298.699402 205.552780,300.331116 
	C200.230637,303.522675 195.243362,306.747192 190.024338,309.538422 
	C187.634827,310.816376 184.889618,310.507172 184.155762,307.201416 
	C183.226181,303.013947 180.559830,303.377899 177.748871,304.551910 
	C175.341339,305.557404 173.134689,307.043884 170.450089,308.533569 
	C172.118423,310.660095 173.510498,312.434448 174.836273,314.124329 
	C184.416168,309.821838 184.501419,309.827942 186.842178,315.015015 
	C184.170105,316.000793 181.508957,316.982513 178.422653,318.121124 
	C181.317200,321.792694 183.132965,325.553375 188.362015,322.534668 
	C189.329071,321.976379 191.742188,323.922974 194.233093,325.050873 
	C191.819824,326.817902 190.694168,327.642120 188.958099,328.913300 
	C192.692200,331.566528 195.971222,333.896423 199.534485,336.428284 
	C204.143936,327.239319 208.418747,318.717499 212.566269,310.449402 
	C214.624985,314.035400 213.323685,317.984314 211.010391,321.797760 
	C208.855820,325.349579 206.287781,328.682159 204.436508,332.379028 
	C201.656265,337.931061 202.407898,339.206055 207.578445,340.906616 
	C210.352371,335.714752 212.739807,330.501434 215.782944,325.704071 
	C222.306992,315.419159 222.277527,310.525909 214.873932,300.895142 
	C214.062180,299.839203 213.206421,298.817200 212.385162,297.768402 
	C204.220230,287.341614 204.150024,280.951752 212.100052,270.443695 
	C212.903412,269.381866 213.736343,268.335602 214.631470,267.351135 
	C219.207642,262.318115 220.174332,256.578674 218.172531,250.175842 
	C216.537628,244.946503 214.490616,239.774338 213.557755,234.414703 
	C212.294525,227.157059 215.352341,220.888199 219.419403,214.009186 
	C219.927429,215.585114 220.142349,215.908340 220.101669,216.195312 
	C220.009827,216.843063 219.860153,217.500702 219.614548,218.105820 
	C216.034851,226.925385 215.967361,235.571991 220.792404,244.011856 
	C225.846100,252.851654 224.829010,260.654266 218.349350,268.807404 
	C208.273911,281.485077 208.843002,287.788788 219.157181,300.090118 
	C226.918839,309.347137 227.260910,315.971283 220.692764,326.319916 
	C218.741257,329.394684 216.656601,332.498535 215.395096,335.873901 
	C212.826324,342.747040 214.241989,344.795166 221.911041,346.136139 
	C220.399002,339.207855 223.109940,333.448212 226.663315,327.889771 
	C228.001953,325.795807 229.208557,323.600922 230.291428,321.363068 
	C233.628983,314.465576 233.298157,307.866425 228.439072,301.717896 
	C226.272079,298.975891 224.045517,296.278290 221.954025,293.479797 
	C217.586548,287.635834 217.423965,281.507996 221.101715,275.302246 
	C222.539719,272.875763 224.097321,270.477020 225.905212,268.321259 
	C230.808716,262.474243 231.353531,256.031647 228.840027,249.132950 
	C227.704788,246.017105 225.841904,243.094925 225.156570,239.902924 
	C224.056351,234.778503 223.045883,229.487015 223.180389,224.296799 
	C223.271347,220.787262 225.393082,217.330353 226.606476,213.849915 
	C227.271255,213.999054 227.936020,214.148193 228.600800,214.297333 
	C224.371872,223.466995 225.241806,232.508820 229.808487,240.789261 
	C236.288239,252.538528 236.811493,263.364197 227.280426,273.661865 
	C227.061844,273.898010 226.973099,274.249847 226.800415,274.533478 
	C222.595123,281.441040 222.865219,288.056702 228.075027,294.360596 
	C229.347992,295.900909 230.577057,297.477814 231.861740,299.008148 
	C238.269394,306.640991 239.049744,314.777496 234.119385,323.461121 
	C232.724808,325.917328 231.028061,328.289978 230.143234,330.926880 
	C228.841019,334.807556 227.640182,338.851074 227.318710,342.898499 
	C226.941864,347.643311 229.324936,350.438446 234.948441,349.707977 
	C235.216690,349.620880 235.484940,349.533752 235.753189,349.446625 
	C235.570587,349.230042 235.387985,349.013458 235.185135,347.979034 
	C233.249695,342.878479 233.602783,337.850616 235.826447,332.952118 
	C237.401169,329.483154 238.966904,325.989471 240.848785,322.684570 
	C246.022110,313.599426 244.888062,305.558411 238.224167,297.479004 
	C227.582474,284.576874 228.175354,283.891663 236.785553,269.647766 
	C240.393234,263.679565 243.326279,261.766022 251.027405,261.387482 
	C260.245758,260.934387 264.062988,263.914520 268.579468,270.660614 
	C275.524567,281.034180 276.588562,285.837830 268.328827,294.979218 
	C259.372040,304.892059 257.210480,314.524170 265.484772,325.682037 
	C266.835968,327.504120 267.503204,329.846924 268.412201,331.980743 
	C270.708588,337.371399 271.282501,342.872498 269.136658,348.952515 
	C269.503204,349.048126 269.869751,349.143768 271.039825,349.290527 
z"/>
<path fill="#FAFCFB" opacity="1.000000" stroke="none" 
	d="
M271.844391,102.561676 
	C270.773346,104.286812 269.857788,105.656631 269.327911,106.449448 
	C271.224426,110.034729 273.641876,113.101189 274.496033,116.554329 
	C275.958344,122.466270 271.905853,128.955231 265.741150,129.429474 
	C255.738266,130.199005 245.632919,129.636810 235.205750,129.636810 
	C234.588364,116.067703 233.957840,102.209930 233.304810,87.857574 
	C243.636856,87.857574 253.741608,87.131325 263.684937,88.086052 
	C271.721771,88.857727 274.257721,94.293327 271.844391,102.561676 
M248.990631,115.453056 
	C248.245361,120.878242 251.776276,121.426186 255.424622,120.309349 
	C257.264343,119.746178 258.501495,117.214668 260.011139,115.573204 
	C258.586945,114.264534 257.217865,111.960426 255.725784,111.877838 
	C253.421844,111.750305 249.482483,109.564911 248.990631,115.453056 
M254.165756,95.822441 
	C252.235657,95.822441 250.305557,95.822441 247.814606,95.822441 
	C248.284332,98.811630 248.671448,101.275047 249.334839,105.496620 
	C252.831757,103.508095 255.384262,102.056610 257.936768,100.605133 
	C256.976074,99.025146 256.015411,97.445160 254.165756,95.822441 
z"/>
<path fill="#F9FCFB" opacity="1.000000" stroke="none" 
	d="
M218.346893,132.874146 
	C215.488983,130.519394 213.114975,128.086334 210.304260,126.367302 
	C208.602249,125.326340 206.223785,125.391449 204.149231,124.959618 
	C203.931641,125.482201 203.714035,126.004776 203.496429,126.527351 
	C204.870224,129.857346 206.244034,133.187332 207.865936,137.118729 
	C203.698486,139.412109 199.553238,141.693298 194.858215,144.277023 
	C189.287903,130.893799 183.828705,117.777550 178.184219,104.216164 
	C187.903488,99.948059 196.697159,93.890221 207.651917,93.848701 
	C218.567032,93.807335 225.030685,102.755051 220.985275,112.842941 
	C219.564926,116.384819 220.319290,118.305794 222.837219,120.453171 
	C226.494003,123.571777 230.038727,126.821808 234.804520,131.058914 
	C228.624802,131.838303 223.635773,132.467514 218.346893,132.874146 
M204.181686,114.638245 
	C205.330124,112.901871 207.100815,111.268753 207.411987,109.393456 
	C207.625534,108.106438 205.703308,105.171402 204.921066,105.235466 
	C201.430405,105.521339 198.006378,106.620758 194.153030,107.520958 
	C195.993027,111.528702 197.210236,114.179909 198.480392,116.946465 
	C200.462555,116.150368 201.982483,115.539909 204.181686,114.638245 
z"/>
<path fill="#FAFCFB" opacity="1.000000" stroke="none" 
	d="
M154.016357,171.928619 
	C149.001389,159.970367 144.138794,148.352493 139.133347,136.796509 
	C138.133224,134.487549 138.250931,133.015198 140.376450,131.368088 
	C144.310440,128.319565 147.873535,124.789703 151.833969,121.779884 
	C152.920990,120.953766 155.324875,120.525993 156.354446,121.161972 
	C168.735123,128.809677 180.970917,136.691940 193.716476,144.813736 
	C190.270370,147.115372 187.319138,149.663116 183.902237,151.114777 
	C182.298660,151.796082 179.482880,150.862778 177.774368,149.780457 
	C174.907303,147.964203 172.890060,147.928665 170.477722,150.481995 
	C168.228729,152.862442 165.499344,154.788986 162.516281,157.308136 
	C170.807495,166.878494 161.547195,171.073349 156.544052,177.351959 
	C155.604019,175.390457 154.861267,173.840622 154.016357,171.928619 
M161.524353,144.970337 
	C162.766113,144.203796 164.007874,143.437256 165.861298,142.293137 
	C160.795761,139.183136 157.160522,136.951263 153.525284,134.719406 
	C153.247849,134.995819 152.970428,135.272232 152.692993,135.548645 
	C154.410843,139.462906 156.128708,143.377151 157.955978,147.540726 
	C159.329941,146.575226 160.132965,146.010925 161.524353,144.970337 
z"/>
<path fill="#F9FCFB" opacity="1.000000" stroke="none" 
	d="
M280.975403,109.957550 
	C283.261292,103.489029 285.460632,97.411827 287.833099,90.856148 
	C292.584137,92.370628 297.099579,93.810013 302.112488,95.407974 
	C299.559448,102.547493 297.026337,109.481033 294.617157,116.457359 
	C293.863495,118.639656 292.592346,121.158302 293.102142,123.122192 
	C293.651276,125.237625 295.694946,127.632393 297.690918,128.476883 
	C299.087036,129.067581 302.536469,127.812935 303.277344,126.425705 
	C306.548889,120.299835 309.211761,113.845024 312.008026,107.471130 
	C313.058960,105.075554 313.874054,102.576492 314.953278,99.708488 
	C319.521362,101.800789 323.680786,103.705902 328.639648,105.977180 
	C324.226105,115.612610 320.304688,125.284760 315.326538,134.378387 
	C313.792419,137.180878 309.568604,139.569397 306.239136,140.124344 
	C297.612976,141.562119 289.771301,138.714783 283.276123,132.818558 
	C278.925415,128.869034 276.772736,124.049263 278.755249,118.020493 
	C279.583496,115.501762 280.184540,112.908318 280.975403,109.957550 
z"/>
<path fill="#F9FCFB" opacity="1.000000" stroke="none" 
	d="
M165.666534,387.249756 
	C158.402283,374.973816 161.068497,361.975830 171.986069,355.093781 
	C182.868561,348.233765 196.945419,351.351105 204.495758,362.293060 
	C211.148438,371.934113 208.690414,385.957489 199.113892,392.997437 
	C188.717178,400.640320 174.523224,398.310913 165.666534,387.249756 
M183.461777,386.828949 
	C190.700729,386.537872 194.784012,379.159760 195.692169,374.154236 
	C196.816772,367.955627 192.461166,362.234833 186.758743,362.172455 
	C181.010590,362.109558 175.418533,368.265167 174.371826,375.807648 
	C173.581390,381.503448 176.081619,384.814453 183.461777,386.828949 
z"/>
<path fill="#F9FCFB" opacity="1.000000" stroke="none" 
	d="
M362.603607,173.617340 
	C358.797546,176.249893 354.991486,178.882431 350.731262,181.829117 
	C348.033264,178.341644 345.440826,174.990662 342.390564,171.047852 
	C348.098236,166.547577 353.603912,162.090988 359.235046,157.799042 
	C364.902802,153.479202 370.695312,149.323090 376.807159,144.819656 
	C379.680023,148.553925 382.387177,152.072739 385.480438,156.093460 
	C381.733643,159.219833 378.121887,162.233566 373.668976,165.949142 
	C378.278809,166.363373 381.853912,167.035110 385.403656,166.920547 
	C390.584595,166.753342 393.861084,168.830322 395.650360,173.648148 
	C396.445740,175.789749 397.599762,177.798141 398.936829,180.588821 
	C392.554260,180.102585 386.819580,179.815598 381.125092,179.172821 
	C377.966217,178.816284 375.942688,179.477448 374.326202,182.507584 
	C370.758362,189.195709 366.780060,195.664871 362.618622,202.826782 
	C360.241882,198.434464 357.999939,194.758865 356.288940,190.850784 
	C355.759644,189.641876 356.339813,187.639709 356.992462,186.279190 
	C358.857727,182.390732 361.021179,178.645309 363.351227,174.386841 
	C363.620300,173.681458 363.605499,173.432831 363.590729,173.184219 
	C363.261688,173.328583 362.932648,173.472961 362.603607,173.617340 
z"/>
<path fill="#F9FCFB" opacity="1.000000" stroke="none" 
	d="
M138.076843,212.858917 
	C137.800186,219.734009 135.049988,225.089294 131.203018,230.090698 
	C128.413635,233.717133 125.619812,235.066086 121.839226,231.515427 
	C120.922523,230.654495 119.738754,230.077927 119.055664,229.622513 
	C121.904411,225.471878 124.978577,221.774551 127.056953,217.583435 
	C127.899269,215.884888 126.570969,213.109924 126.230392,210.824783 
	C124.297516,211.991638 122.094017,212.879105 120.513664,214.409897 
	C119.140625,215.739838 118.568176,217.860504 117.474586,219.521561 
	C114.394348,224.200119 110.136818,226.859222 104.417862,225.904343 
	C98.626900,224.937439 94.938644,221.254929 93.347786,215.669128 
	C90.871521,206.974487 94.906548,195.608307 102.669334,189.571899 
	C104.829720,191.103241 107.085747,192.702362 108.808426,193.923431 
	C106.630089,198.227234 104.296959,202.005386 102.859833,206.098145 
	C102.308868,207.667282 103.803337,209.954636 104.365746,211.914719 
	C106.087090,210.897537 108.115204,210.174240 109.447075,208.783951 
	C110.899673,207.267685 111.673882,205.112976 112.801605,203.271988 
	C116.796997,196.749542 121.603401,194.490067 128.180573,196.003464 
	C133.825119,197.302292 137.585327,202.391907 138.067459,209.420456 
	C138.135635,210.414139 138.105072,211.414566 138.076843,212.858917 
z"/>
<path fill="#F8FBFA" opacity="1.000000" stroke="none" 
	d="
M316.411804,388.538422 
	C321.626801,386.295807 326.498199,384.243134 331.657593,382.069092 
	C333.124268,384.840820 334.497437,387.435883 336.177032,390.610046 
	C325.539001,395.444855 315.211761,400.138397 304.467346,405.021545 
	C299.070740,391.303223 293.995117,378.400818 288.870605,365.374176 
	C298.111755,360.888336 307.032745,356.557922 316.478821,351.972595 
	C317.885010,354.258606 319.322144,356.594940 321.055023,359.412048 
	C315.431580,362.274353 310.065704,365.005585 304.445862,367.866089 
	C305.274628,369.988770 305.980255,371.796021 306.917114,374.195496 
	C311.796478,372.170959 316.455048,370.238007 321.707520,368.058624 
	C322.885376,370.346832 324.128326,372.761475 325.653809,375.725006 
	C320.822327,378.020508 316.249908,380.192932 310.279480,383.029572 
	C312.528046,385.243195 314.298126,386.985779 316.411804,388.538422 
z"/>
<path fill="#F8FBFA" opacity="1.000000" stroke="none" 
	d="
M326.886841,357.124268 
	C324.859253,354.459564 323.030853,352.088318 321.002502,349.457794 
	C328.474457,342.669617 335.921204,335.904297 343.728119,328.811798 
	C345.751373,330.626434 347.810913,332.473572 350.209656,334.624939 
	C345.610931,339.024445 341.203125,343.241333 336.578186,347.665955 
	C338.008362,349.356720 339.268768,350.846771 340.912659,352.790192 
	C345.050415,349.430695 348.994232,346.228638 353.217590,342.799622 
	C355.202972,344.901276 357.094269,346.903290 359.238739,349.173370 
	C355.112274,352.618683 351.322083,355.783234 347.184540,359.237793 
	C348.738251,361.386505 350.124634,363.303864 351.780823,365.594269 
	C356.848938,361.481232 361.589478,357.634064 366.892883,353.330078 
	C368.828033,355.608734 370.719116,357.835541 373.122009,360.664948 
	C364.669403,367.978577 356.091583,375.400543 347.122559,383.161041 
	C340.104950,374.144714 333.595490,365.781250 326.886841,357.124268 
z"/>
<path fill="#F8FBFB" opacity="1.000000" stroke="none" 
	d="
M375.217834,213.227493 
	C377.039764,215.142670 378.729462,216.648178 380.419128,218.153671 
	C381.274109,216.058182 382.429932,214.025986 382.888397,211.847076 
	C383.251404,210.121902 382.581940,208.207184 382.679382,206.393219 
	C382.971588,200.952301 384.641296,196.252670 390.181183,193.949173 
	C395.212494,191.857162 401.418793,193.040192 405.227997,197.481552 
	C411.600830,204.911987 413.329193,213.566147 411.062805,223.398926 
	C408.223083,223.237762 405.650696,223.091766 402.889801,222.935074 
	C402.889801,218.819290 403.474030,214.919052 402.665344,211.332916 
	C402.198456,209.262405 399.483276,207.698883 397.779999,205.907196 
	C396.801788,207.950302 395.324280,209.906235 394.949127,212.054657 
	C394.164978,216.545013 395.067322,221.634369 393.289551,225.582916 
	C389.658386,233.648071 378.969208,234.777466 372.847809,228.308823 
	C367.860199,223.038239 365.205658,216.667206 365.170319,209.349396 
	C365.126251,200.228195 366.333832,199.207047 375.085541,200.137726 
	C375.085541,204.411987 375.085541,208.614899 375.217834,213.227493 
z"/>
<path fill="#F9FCFB" opacity="1.000000" stroke="none" 
	d="
M214.695267,376.622070 
	C215.643646,372.872772 216.474289,369.520355 217.371017,365.901184 
	C227.584976,367.775726 237.496506,369.594757 247.856567,371.496124 
	C247.493179,374.869781 247.130005,378.241394 246.703674,382.199188 
	C240.575974,381.237183 234.738098,380.320709 228.473221,379.337158 
	C227.911377,381.402527 227.367645,383.401276 226.616287,386.163330 
	C231.892807,387.258453 236.830307,388.283203 242.300308,389.418457 
	C241.943832,392.469818 241.585724,395.535095 241.147430,399.286682 
	C235.570129,398.476593 230.249939,397.703857 224.806885,396.913269 
	C223.474838,401.676300 222.236023,406.105988 220.889328,410.921478 
	C216.219803,409.821503 211.924438,408.809692 206.991653,407.647705 
	C209.587341,397.167358 212.082428,387.093170 214.695267,376.622070 
z"/>
<path fill="#F7FBFA" opacity="1.000000" stroke="none" 
	d="
M253.015381,377.030640 
	C252.997116,374.746338 252.997116,372.933838 252.997116,370.786407 
	C263.098053,369.494751 273.091583,368.216858 283.477722,366.888733 
	C284.169434,370.408875 284.825836,373.749268 285.556244,377.466187 
	C279.285278,378.424194 273.441162,379.316986 267.148346,380.278351 
	C267.378571,382.574036 267.585663,384.638977 267.850769,387.282349 
	C273.223053,386.738800 278.276855,386.227448 283.777496,385.670898 
	C284.302582,388.851929 284.804169,391.890320 285.401947,395.511536 
	C279.822449,396.379059 274.641327,397.184631 269.014679,398.059479 
	C269.288788,401.890259 269.809540,405.665466 269.682220,409.418701 
	C269.641418,410.621307 268.040924,412.594757 266.892303,412.808472 
	C255.489685,414.929840 255.525024,414.843292 254.831955,403.361633 
	C254.311356,394.737152 253.638626,386.121826 253.015381,377.030640 
z"/>
<path fill="#F9FCFB" opacity="1.000000" stroke="none" 
	d="
M325.804016,155.096588 
	C320.079651,146.475067 319.780090,137.867447 325.101593,129.511932 
	C330.033173,121.768646 337.528503,118.591690 346.593536,120.039314 
	C358.001282,121.861076 364.673889,129.030289 368.035583,140.335541 
	C365.283112,142.004395 362.507874,143.687073 359.701141,145.388824 
	C354.733154,134.791489 350.846466,131.575974 344.562347,132.687302 
	C339.502991,133.582031 334.308777,139.304123 334.184784,144.119492 
	C334.030518,150.110489 338.435547,154.379364 347.704498,157.206467 
	C347.717438,157.494461 347.849060,157.855728 347.726868,158.076492 
	C343.235657,166.189453 341.682831,166.703964 333.610046,161.758301 
	C330.825623,160.052460 328.538452,157.534927 325.804016,155.096588 
z"/>
<path fill="#F8FBFA" opacity="1.000000" stroke="none" 
	d="
M129.966400,354.795288 
	C127.463249,340.805237 134.098160,329.773987 146.225494,327.253632 
	C159.127014,324.572418 171.382812,332.591705 174.968948,346.519989 
	C172.483215,347.752228 169.887192,349.039124 168.344223,349.804016 
	C164.394211,346.118347 161.242523,342.663879 157.533340,339.979858 
	C156.130554,338.964783 153.311127,339.248047 151.362000,339.773102 
	C145.882523,341.249054 142.059677,346.675201 142.191498,352.104401 
	C142.331116,357.854401 147.592133,362.286682 156.592926,364.237213 
	C154.082672,372.836975 152.394302,373.646484 144.065002,370.357666 
	C136.948547,367.547791 132.251724,362.526794 129.966400,354.795288 
z"/>
<path fill="#F9FCFB" opacity="1.000000" stroke="none" 
	d="
M124.062592,149.005569 
	C127.576035,149.975891 130.909058,151.260162 134.727783,152.731583 
	C132.175476,156.925049 130.133484,160.280060 127.807281,164.102020 
	C136.376328,169.784576 144.886429,175.428055 154.043823,181.500763 
	C151.665787,185.390106 149.396713,189.101227 146.970810,193.068863 
	C137.847916,187.411316 129.165939,182.027206 120.117119,176.415588 
	C117.847374,179.884399 115.703598,183.160675 113.419846,186.650894 
	C110.475502,184.708450 107.730110,182.897278 104.443779,180.729218 
	C111.024948,170.094986 117.453568,159.707260 124.062592,149.005569 
z"/>
<path fill="#F4F9F8" opacity="1.000000" stroke="none" 
	d="
M386.365601,276.597443 
	C387.707428,273.328857 388.854706,270.424561 390.055511,267.384766 
	C390.538086,267.758240 390.825989,267.866425 390.907135,268.060883 
	C392.406921,271.655731 392.935944,276.732452 395.622253,278.459320 
	C398.436646,280.268463 403.316986,278.863800 408.588318,278.863800 
	C405.749237,281.333405 403.920044,283.375427 401.684967,284.764252 
	C398.243622,286.902557 397.663513,289.497620 399.022491,293.110748 
	C399.887451,295.410461 400.234314,297.905029 400.828766,300.375610 
	C400.418823,300.401276 400.051941,300.534302 399.931091,300.416016 
	C393.266907,293.893402 386.492188,292.909698 379.499268,301.089386 
	C379.285065,300.657532 379.070862,300.225708 378.856659,299.793884 
	C379.569946,297.206909 380.049988,294.524750 381.056671,292.057526 
	C382.264618,289.096954 381.651886,287.174103 378.955139,285.468994 
	C376.644867,284.008240 374.610535,282.111053 371.238464,279.446136 
	C375.845825,279.446136 378.956818,279.705719 381.990509,279.334198 
	C383.458862,279.154388 384.782104,277.789856 386.365601,276.597443 
z"/>
<path fill="#F5FAF8" opacity="1.000000" stroke="none" 
	d="
M103.817413,294.744049 
	C104.084503,291.522583 107.314026,288.552155 103.237282,285.942383 
	C100.640831,284.280212 98.308098,282.206085 96.189377,279.147888 
	C97.898201,279.147888 99.692566,278.806000 101.300713,279.208374 
	C107.548721,280.771637 110.506111,277.865601 111.753731,272.121063 
	C112.080093,270.618408 112.875900,269.217651 113.880226,266.711914 
	C115.580994,271.450836 116.898994,275.123230 118.267815,278.937195 
	C122.554008,278.937195 126.694908,278.937195 130.819397,278.937195 
	C130.819397,279.444153 130.931137,279.922913 130.803406,279.998840 
	C122.884842,284.706207 119.362312,290.957428 123.541191,300.251099 
	C120.203392,298.197418 116.879456,294.561218 113.523918,294.531799 
	C110.117912,294.501953 106.680702,298.032013 102.210670,300.605438 
	C102.890564,298.132507 103.301170,296.639038 103.817413,294.744049 
z"/>
<path fill="#050505" opacity="1.000000" stroke="none" 
	d="
M269.329163,348.506195 
	C271.282501,342.872498 270.708588,337.371399 268.412201,331.980743 
	C267.503204,329.846924 266.835968,327.504120 265.484772,325.682037 
	C257.210480,314.524170 259.372040,304.892059 268.328827,294.979218 
	C276.588562,285.837830 275.524567,281.034180 268.579468,270.660614 
	C264.062988,263.914520 260.245758,260.934387 251.027405,261.387482 
	C243.326279,261.766022 240.393234,263.679565 236.785553,269.647766 
	C228.175354,283.891663 227.582474,284.576874 238.224167,297.479004 
	C244.888062,305.558411 246.022110,313.599426 240.848785,322.684570 
	C238.966904,325.989471 237.401169,329.483154 235.826447,332.952118 
	C233.602783,337.850616 233.249695,342.878479 235.048340,348.532715 
	C234.911530,349.086365 234.617767,349.375916 234.617767,349.375916 
	C229.324936,350.438446 226.941864,347.643311 227.318710,342.898499 
	C227.640182,338.851074 228.841019,334.807556 230.143234,330.926880 
	C231.028061,328.289978 232.724808,325.917328 234.119385,323.461121 
	C239.049744,314.777496 238.269394,306.640991 231.861740,299.008148 
	C230.577057,297.477814 229.347992,295.900909 228.075027,294.360596 
	C222.865219,288.056702 222.595123,281.441040 226.800415,274.533478 
	C226.973099,274.249847 227.061844,273.898010 227.280426,273.661865 
	C236.811493,263.364197 236.288239,252.538528 229.808487,240.789261 
	C225.241806,232.508820 224.371872,223.466995 228.600800,214.297333 
	C227.936020,214.148193 227.271255,213.999054 226.606476,213.849915 
	C225.393082,217.330353 223.271347,220.787262 223.180389,224.296799 
	C223.045883,229.487015 224.056351,234.778503 225.156570,239.902924 
	C225.841904,243.094925 227.704788,246.017105 228.840027,249.132950 
	C231.353531,256.031647 230.808716,262.474243 225.905212,268.321259 
	C224.097321,270.477020 222.539719,272.875763 221.101715,275.302246 
	C217.423965,281.507996 217.586548,287.635834 221.954025,293.479797 
	C224.045517,296.278290 226.272079,298.975891 228.439072,301.717896 
	C233.298157,307.866425 233.628983,314.465576 230.291428,321.363068 
	C229.208557,323.600922 228.001953,325.795807 226.663315,327.889771 
	C223.109940,333.448212 220.399002,339.207855 221.911041,346.136139 
	C214.241989,344.795166 212.826324,342.747040 215.395096,335.873901 
	C216.656601,332.498535 218.741257,329.394684 220.692764,326.319916 
	C227.260910,315.971283 226.918839,309.347137 219.157181,300.090118 
	C208.843002,287.788788 208.273911,281.485077 218.349350,268.807404 
	C224.829010,260.654266 225.846100,252.851654 220.792404,244.011856 
	C215.967361,235.571991 216.034851,226.925385 219.614548,218.105820 
	C219.860153,217.500702 220.009827,216.843063 220.101669,216.195312 
	C220.142349,215.908340 219.927429,215.585114 219.419403,214.009186 
	C215.352341,220.888199 212.294525,227.157059 213.557755,234.414703 
	C214.490616,239.774338 216.537628,244.946503 218.172531,250.175842 
	C220.174332,256.578674 219.207642,262.318115 214.631470,267.351135 
	C213.736343,268.335602 212.903412,269.381866 212.100052,270.443695 
	C204.150024,280.951752 204.220230,287.341614 212.385162,297.768402 
	C213.206421,298.817200 214.062180,299.839203 214.873932,300.895142 
	C222.277527,310.525909 222.306992,315.419159 215.782944,325.704071 
	C212.739807,330.501434 210.352371,335.714752 207.578445,340.906616 
	C202.407898,339.206055 201.656265,337.931061 204.436508,332.379028 
	C206.287781,328.682159 208.855820,325.349579 211.010391,321.797760 
	C213.323685,317.984314 214.624985,314.035400 212.566269,310.449402 
	C208.418747,318.717499 204.143936,327.239319 199.534485,336.428284 
	C195.971222,333.896423 192.692200,331.566528 188.958099,328.913300 
	C190.694168,327.642120 191.819824,326.817902 194.233093,325.050873 
	C191.742188,323.922974 189.329071,321.976379 188.362015,322.534668 
	C183.132965,325.553375 181.317200,321.792694 178.422653,318.121124 
	C181.508957,316.982513 184.170105,316.000793 186.842178,315.015015 
	C184.501419,309.827942 184.416168,309.821838 174.836273,314.124329 
	C173.510498,312.434448 172.118423,310.660095 170.450089,308.533569 
	C173.134689,307.043884 175.341339,305.557404 177.748871,304.551910 
	C180.559830,303.377899 183.226181,303.013947 184.155762,307.201416 
	C184.889618,310.507172 187.634827,310.816376 190.024338,309.538422 
	C195.243362,306.747192 200.230637,303.522675 205.552780,300.331116 
	C204.728867,298.699402 204.359161,297.833466 203.877945,297.034729 
	C198.488235,288.088959 198.846268,279.407257 204.970352,270.933929 
	C206.429428,268.915161 207.734589,266.785217 209.112930,264.708008 
	C212.744888,259.234589 213.588715,253.688263 211.159210,247.251160 
	C207.435013,237.383698 206.725220,227.273773 211.967972,217.141266 
	C206.726273,220.104965 203.192566,229.907608 204.426208,237.444672 
	C205.258301,242.528595 206.843704,247.568024 206.992523,252.659500 
	C207.107254,256.584381 206.052475,260.778595 204.557724,264.463684 
	C201.893692,271.031464 198.826004,277.488068 195.321640,283.646667 
	C192.198685,289.134979 186.939896,291.864014 180.156357,292.064514 
	C180.388092,293.852722 180.592621,295.430908 180.800980,297.038788 
	C178.028336,298.309174 175.148148,299.408997 172.483353,300.895020 
	C166.708496,304.115387 166.588669,304.138611 163.782623,297.295746 
	C168.548157,294.662689 173.383911,291.990845 178.448746,289.192444 
	C178.174286,284.340210 177.108963,283.615234 172.365479,285.887573 
	C170.425751,286.816772 168.626755,288.044281 166.781265,289.164917 
	C160.597260,292.919983 158.687088,291.969757 158.023544,284.943390 
	C164.261200,281.846619 170.441605,278.778259 176.989899,275.527222 
	C177.092941,274.373291 177.230408,272.833862 177.479965,270.038940 
	C173.467789,271.619934 170.306259,272.817902 167.187576,274.118591 
	C165.967834,274.627289 164.869171,275.418518 163.672806,275.992340 
	C156.459656,279.452026 155.010910,278.615173 154.284180,271.269318 
	C158.714554,269.405609 162.961136,267.664398 167.168335,265.832672 
	C169.752472,264.707581 172.188293,262.736969 174.847549,262.405975 
	C178.987610,261.890625 179.559128,259.592346 179.434723,255.280289 
	C176.062057,256.288788 172.938370,257.049316 169.946320,258.163330 
	C166.536423,259.432953 163.347443,261.370819 159.877716,262.388306 
	C153.632965,264.219513 152.164734,262.989258 151.968781,256.631226 
	C151.938889,255.661621 151.964615,254.690308 151.964615,253.298599 
	C158.838501,255.409088 164.530655,252.869705 170.294785,250.172318 
	C173.837921,248.514267 177.808823,247.747086 181.290787,245.991226 
	C183.042160,245.108047 184.131409,242.911865 185.520065,241.309433 
	C185.179214,240.662094 184.838379,240.014755 184.497528,239.367416 
	C180.725174,240.370926 176.868713,241.138107 173.203430,242.442520 
	C169.316589,243.825760 165.753418,246.335358 161.794144,247.248444 
	C155.560242,248.686081 150.712845,247.678406 151.813614,238.937408 
	C158.561890,185.350388 202.573212,149.221664 250.981247,148.551361 
	C299.602295,147.878098 340.235321,184.046783 349.381104,223.395813 
	C350.731659,229.206406 351.131073,235.234604 352.399994,241.068710 
	C353.466370,245.971603 350.619781,248.039963 346.932587,247.735855 
	C342.653412,247.382935 338.469727,245.506699 334.317291,244.080170 
	C329.756866,242.513535 325.279205,240.705994 320.035614,238.728088 
	C319.700256,243.718979 320.562836,245.521912 324.399048,246.383423 
	C328.701447,247.349625 332.633514,249.854523 336.879944,251.209763 
	C341.627472,252.724945 346.546997,253.701202 351.391693,254.912003 
	C351.507629,254.474197 351.623596,254.036392 351.739532,253.598587 
	C351.935730,253.860977 352.281982,254.110184 352.306366,254.387665 
	C353.082062,263.214294 350.751099,265.047119 342.429962,261.878174 
	C338.405151,260.345428 334.588562,258.269806 330.577332,256.695801 
	C328.947113,256.056091 327.049957,256.096680 325.094330,255.800476 
	C324.570465,259.431915 324.980194,261.511780 329.088135,262.246826 
	C332.233948,262.809692 335.071686,265.004913 338.094452,266.367645 
	C341.840088,268.056305 345.635254,269.635010 349.647034,271.363770 
	C350.150055,278.770569 348.590790,279.898102 341.477234,276.593231 
	C336.903748,274.468445 332.379181,272.238525 327.171417,269.738251 
	C326.981262,272.446106 326.880280,273.884125 326.783722,275.258972 
	C333.312500,278.520142 339.640167,281.680878 346.023773,284.869537 
	C344.929871,291.791748 343.673157,292.414978 337.546509,289.244446 
	C334.085663,287.453491 330.485657,285.931427 326.490784,284.075714 
	C325.932983,286.434479 325.599182,287.845978 325.355347,288.877075 
	C330.392670,291.660309 335.275482,294.358154 340.620026,297.311127 
	C339.557983,299.401337 338.628571,301.230499 337.547760,303.357635 
	C332.767212,301.260193 328.277466,299.290314 323.327148,297.118378 
	C323.513611,295.885620 323.774719,294.159180 323.859711,293.597137 
	C319.522949,291.012299 315.536530,288.967560 311.968292,286.352203 
	C310.467194,285.251984 309.780304,282.982208 308.844635,281.181061 
	C306.635162,276.927917 304.911377,272.356964 302.243103,268.421783 
	C297.278015,261.099304 295.090424,253.979858 298.619019,245.083038 
	C301.803192,237.054626 300.184052,228.635391 296.730194,220.784286 
	C295.943604,218.996216 294.351257,217.562622 292.191559,216.543472 
	C292.413147,217.259903 292.544067,218.020752 292.870087,218.686005 
	C297.079895,227.276489 297.129730,236.175934 293.840118,244.875656 
	C290.635742,253.350113 291.609467,260.691772 297.272461,267.709198 
	C299.339203,270.270294 300.995392,273.244965 302.407562,276.234680 
	C305.271820,282.298798 305.666962,288.538330 301.799988,294.320984 
	C299.326874,298.019257 299.807434,300.625336 303.521271,302.827454 
	C307.071472,304.932526 310.544006,307.186249 314.197021,309.094452 
	C316.997681,310.557434 319.318329,310.212555 320.081665,306.462463 
	C320.807312,302.897400 322.750458,302.288300 325.840271,304.213531 
	C328.214630,305.692963 330.794159,306.843109 333.772369,308.394989 
	C332.281952,310.499756 330.995972,312.315826 329.894470,313.871338 
	C325.357239,313.532471 321.118408,307.362885 317.092682,314.240631 
	C319.857697,315.622803 322.327606,316.857452 324.917480,318.152100 
	C322.397583,321.988983 320.155640,324.990723 315.145721,322.407959 
	C314.186646,321.913513 312.073334,323.658051 309.707581,324.722931 
	C312.046936,326.432739 313.340698,327.378326 315.294098,328.806030 
	C312.027679,331.274323 308.945007,333.603760 305.243744,336.400635 
	C300.481354,327.143524 295.938995,318.314117 291.740234,310.152618 
	C290.270844,313.226501 291.018250,317.418152 293.413300,321.457397 
	C295.615051,325.170563 298.188354,328.689178 300.108276,332.537750 
	C302.941193,338.216461 302.514313,338.846130 297.242188,340.594666 
	C294.228424,334.958405 291.477814,329.358490 288.316589,324.000793 
	C282.432007,314.027496 282.426117,310.569397 289.337921,301.491882 
	C298.965302,288.847961 303.384552,283.574585 290.270935,267.379364 
	C285.508453,261.497772 284.749023,255.025421 287.112854,247.690353 
	C289.028442,241.746170 290.661621,235.424774 290.704865,229.258667 
	C290.736481,224.752304 288.077393,220.190079 286.388733,215.739609 
	C286.048096,214.841827 284.678253,214.334534 283.553741,213.929291 
	C288.096558,224.545776 288.888580,234.790344 283.304047,245.135483 
	C279.332184,252.493286 279.380646,259.506927 284.870697,266.482574 
	C287.901886,270.334015 290.211700,274.908966 292.091339,279.469147 
	C294.170929,284.514465 293.307434,289.546967 289.917847,294.060303 
	C287.222626,297.649078 284.514771,301.257111 282.178558,305.080231 
	C278.368866,311.314545 278.347534,317.522125 282.658905,323.750732 
	C285.102051,327.280334 287.350952,331.054810 288.986389,335.008911 
	C291.916809,342.093872 290.968140,343.673920 283.134888,346.138062 
	C284.832092,337.389038 280.071411,330.907074 276.061981,324.114166 
	C270.207947,314.196045 270.614532,309.241028 277.737152,300.024261 
	C278.246613,299.365021 278.756348,298.705933 279.271698,298.051270 
	C288.799896,285.947266 288.917999,281.029999 279.353485,269.071533 
	C274.595642,263.122864 272.888275,257.013153 275.756409,249.631561 
	C278.037170,243.761719 280.017609,237.720825 281.474792,231.599548 
	C283.176422,224.451294 281.278107,218.034958 275.683746,212.787827 
	C281.578064,225.122818 277.824341,236.251175 271.972412,247.171097 
	C267.952759,254.671875 268.244537,261.781158 273.946442,268.438690 
	C275.344086,270.070526 276.491394,271.941742 277.591644,273.798981 
	C282.463776,282.023407 282.166046,286.747070 276.396088,294.346466 
	C275.288574,295.805084 274.215546,297.293304 273.046295,298.701141 
	C266.192505,306.953522 265.307861,315.194885 271.201233,324.756653 
	C274.365784,329.891083 275.696014,336.313446 277.082886,342.332336 
	C278.051270,346.535034 275.846161,349.388641 270.422058,349.068329 
	C269.645905,348.732788 269.487518,348.619476 269.329163,348.506195 
M254.233246,159.145493 
	C253.564224,157.914948 252.895203,156.684402 251.312546,153.773392 
	C249.905136,165.431595 243.628952,169.026825 233.668671,167.654907 
	C236.923721,171.287140 241.563461,173.689926 242.427216,177.060364 
	C243.331390,180.588577 240.608017,185.046448 239.413727,189.299179 
	C231.478073,185.731323 225.566528,179.877686 216.949203,179.539505 
	C218.558960,184.276169 219.941635,188.344666 221.452805,192.791245 
	C215.568726,191.065079 210.731247,189.645935 205.403275,188.082901 
	C209.039703,195.848434 212.225677,202.652008 215.537308,209.723907 
	C239.829880,198.005661 264.685272,197.562805 288.881165,209.337830 
	C292.257507,202.005051 295.396759,195.187149 298.895874,187.587677 
	C293.561554,189.205566 288.773987,190.657608 283.144623,192.364975 
	C284.642151,187.557739 285.878174,183.589905 287.114197,179.622086 
	C286.754608,179.170700 286.395020,178.719330 286.035431,178.267960 
	C279.114136,181.470825 272.192841,184.673691 265.087708,187.961624 
	C264.190765,185.907410 263.357574,183.550842 262.170105,181.388870 
	C260.549286,178.437927 260.841187,176.275848 263.776001,174.299057 
	C266.168274,172.687729 268.247772,170.612076 271.440826,167.920547 
	C264.041748,166.057938 255.746918,169.637924 254.233246,159.145493 
M255.815369,256.936768 
	C266.898590,251.834778 274.380768,237.015488 269.857452,228.659882 
	C265.208466,229.120697 260.484863,229.588913 254.544662,230.177704 
	C254.768951,227.665604 253.996643,223.446793 255.634918,220.630035 
	C259.105988,214.662140 265.829865,217.071213 271.363495,216.637421 
	C269.306427,207.403854 261.890045,203.767670 248.059723,204.956528 
	C239.775284,205.668671 234.461975,209.940109 234.189209,216.107224 
	C248.392532,217.897217 251.176193,220.641357 247.369492,228.990097 
	C243.735245,228.990097 240.001114,229.600266 236.585617,228.818466 
	C233.170776,228.036835 232.224396,229.298096 232.044922,232.027588 
	C231.366943,242.338394 240.309265,259.283234 255.815369,256.936768 
M183.434586,212.271561 
	C181.163773,202.614761 176.760269,197.068497 171.038910,196.995239 
	C173.779495,213.345581 162.975388,224.666870 155.516129,237.376083 
	C159.908096,239.876053 163.774689,239.151825 167.783539,237.544647 
	C173.150681,235.392914 178.541733,232.205292 184.071701,231.861404 
	C189.669815,231.513275 192.299316,228.871216 195.504776,225.227936 
	C199.504761,220.681625 204.316345,216.849350 209.477448,212.059158 
	C206.339401,211.351898 203.622665,210.030823 201.093369,210.324432 
	C196.528061,210.854355 192.092834,212.435745 187.562820,213.384918 
	C186.344681,213.640167 184.980621,213.198883 183.434586,212.271561 
M321.432739,210.901474 
	C320.998657,212.267868 320.564545,213.634262 320.084290,215.146027 
	C311.919708,211.598419 304.169830,207.693939 296.167084,212.220383 
	C302.067047,218.597031 307.639008,224.645081 313.258209,230.648880 
	C313.770813,231.196579 314.650208,231.883972 315.251373,231.793060 
	C323.795288,230.501099 330.620300,235.116760 337.927856,238.159378 
	C341.515961,239.653320 345.170624,239.917221 348.795715,237.145309 
	C340.969452,224.555588 330.545105,213.313553 333.625031,196.642181 
	C326.892700,199.145309 323.147461,203.632416 321.432739,210.901474 
M240.421219,220.786774 
	C238.096695,220.922409 235.747192,220.926636 233.478775,221.357605 
	C233.190643,221.412354 233.326721,223.699982 233.290817,224.444122 
	C237.323410,224.244461 240.562363,224.084106 244.695694,223.879456 
	C243.231628,222.690155 242.196640,221.849411 240.421219,220.786774 
M270.976868,224.418121 
	C271.927002,221.242447 269.711029,220.432571 267.496796,220.537735 
	C264.775482,220.666992 261.358093,219.992172 259.812958,223.357544 
	C263.672180,223.945755 266.999634,224.452927 270.976868,224.418121 
z"/>
<path fill="#050505" opacity="1.000000" stroke="none" 
	d="
M270.020294,349.042786 
	C269.869751,349.143768 269.503204,349.048126 269.232910,348.729370 
	C269.487518,348.619476 269.645905,348.732788 270.020294,349.042786 
z"/>
<path fill="#050505" opacity="1.000000" stroke="none" 
	d="
M235.058456,348.941620 
	C235.387985,349.013458 235.570587,349.230042 235.753189,349.446625 
	C235.484940,349.533752 235.216690,349.620880 234.783112,349.541931 
	C234.617767,349.375916 234.911530,349.086365 235.058456,348.941620 
z"/>
<path fill="#117F5D" opacity="1.000000" stroke="none" 
	d="
M248.985016,115.015457 
	C249.482483,109.564911 253.421844,111.750305 255.725784,111.877838 
	C257.217865,111.960426 258.586945,114.264534 260.011139,115.573196 
	C258.501495,117.214668 257.264343,119.746178 255.424622,120.309349 
	C251.776276,121.426186 248.245361,120.878242 248.985016,115.015457 
z"/>
<path fill="#0D7D5A" opacity="1.000000" stroke="none" 
	d="
M254.610245,95.843811 
	C256.015411,97.445160 256.976074,99.025146 257.936768,100.605133 
	C255.384262,102.056610 252.831757,103.508095 249.334839,105.496620 
	C248.671448,101.275047 248.284332,98.811630 247.814606,95.822441 
	C250.305557,95.822441 252.235657,95.822441 254.610245,95.843811 
z"/>
<path fill="#0C7C59" opacity="1.000000" stroke="none" 
	d="
M203.842056,114.783852 
	C201.982483,115.539909 200.462555,116.150368 198.480392,116.946465 
	C197.210236,114.179909 195.993027,111.528702 194.153030,107.520958 
	C198.006378,106.620758 201.430405,105.521339 204.921066,105.235466 
	C205.703308,105.171402 207.625534,108.106438 207.411987,109.393456 
	C207.100815,111.268753 205.330124,112.901871 203.842056,114.783852 
z"/>
<path fill="#107F5C" opacity="1.000000" stroke="none" 
	d="
M161.230179,145.208481 
	C160.132965,146.010925 159.329941,146.575226 157.955978,147.540726 
	C156.128708,143.377151 154.410843,139.462906 152.692993,135.548645 
	C152.970428,135.272232 153.247849,134.995819 153.525284,134.719406 
	C157.160522,136.951263 160.795761,139.183136 165.861298,142.293137 
	C164.007874,143.437256 162.766113,144.203796 161.230179,145.208481 
z"/>
<path fill="#077955" opacity="1.000000" stroke="none" 
	d="
M183.074982,386.824890 
	C176.081619,384.814453 173.581390,381.503448 174.371826,375.807648 
	C175.418533,368.265167 181.010590,362.109558 186.758743,362.172455 
	C192.461166,362.234833 196.816772,367.955627 195.692169,374.154236 
	C194.784012,379.159760 190.700729,386.537872 183.074982,386.824890 
z"/>
<path fill="#037853" opacity="1.000000" stroke="none" 
	d="
M362.737854,173.746887 
	C362.932648,173.472961 363.261688,173.328583 363.590729,173.184219 
	C363.605499,173.432831 363.620300,173.681458 363.388367,174.032288 
	C363.141632,174.134491 362.872131,173.876434 362.737854,173.746887 
z"/>
<path fill="#F8F8F8" opacity="1.000000" stroke="none" 
	d="
M254.432526,159.488831 
	C255.746918,169.637924 264.041748,166.057938 271.440826,167.920547 
	C268.247772,170.612076 266.168274,172.687729 263.776001,174.299057 
	C260.841187,176.275848 260.549286,178.437927 262.170105,181.388870 
	C263.357574,183.550842 264.190765,185.907410 265.087708,187.961624 
	C272.192841,184.673691 279.114136,181.470825 286.035431,178.267960 
	C286.395020,178.719330 286.754608,179.170700 287.114197,179.622086 
	C285.878174,183.589905 284.642151,187.557739 283.144623,192.364975 
	C288.773987,190.657608 293.561554,189.205566 298.895874,187.587677 
	C295.396759,195.187149 292.257507,202.005051 288.881165,209.337830 
	C264.685272,197.562805 239.829880,198.005661 215.537308,209.723907 
	C212.225677,202.652008 209.039703,195.848434 205.403275,188.082901 
	C210.731247,189.645935 215.568726,191.065079 221.452805,192.791245 
	C219.941635,188.344666 218.558960,184.276169 216.949203,179.539505 
	C225.566528,179.877686 231.478073,185.731323 239.413727,189.299179 
	C240.608017,185.046448 243.331390,180.588577 242.427216,177.060364 
	C241.563461,173.689926 236.923721,171.287140 233.668671,167.654907 
	C243.628952,169.026825 249.905136,165.431595 251.312546,153.773392 
	C252.895203,156.684402 253.564224,157.914948 254.432526,159.488831 
M255.353439,192.854904 
	C257.381134,192.854904 259.408813,192.854904 261.436493,192.854904 
	C261.593231,192.332214 261.749969,191.809509 261.906708,191.286819 
	C258.551025,188.793747 255.195328,186.300659 251.646118,183.663834 
	C248.239563,186.345230 245.096451,188.819260 241.953339,191.293304 
	C242.118866,191.813828 242.284409,192.334366 242.449936,192.854904 
	C246.431305,192.854904 250.412689,192.854904 255.353439,192.854904 
z"/>
<path fill="#F8F8F8" opacity="1.000000" stroke="none" 
	d="
M255.400726,256.995361 
	C240.309265,259.283234 231.366943,242.338394 232.044922,232.027588 
	C232.224396,229.298096 233.170776,228.036835 236.585617,228.818466 
	C240.001114,229.600266 243.735245,228.990097 247.369492,228.990097 
	C251.176193,220.641357 248.392532,217.897217 234.189209,216.107224 
	C234.461975,209.940109 239.775284,205.668671 248.059723,204.956528 
	C261.890045,203.767670 269.306427,207.403854 271.363495,216.637421 
	C265.829865,217.071213 259.105988,214.662140 255.634918,220.630035 
	C253.996643,223.446793 254.768951,227.665604 254.544662,230.177704 
	C260.484863,229.588913 265.208466,229.120697 269.857452,228.659882 
	C274.380768,237.015488 266.898590,251.834778 255.400726,256.995361 
M250.561966,243.139755 
	C248.360550,243.139755 246.159149,243.139755 243.957733,243.139755 
	C243.742874,243.783813 243.528015,244.427856 243.313156,245.071915 
	C246.508087,246.525009 249.607193,248.818497 252.924652,249.196716 
	C256.296326,249.581116 258.676514,246.802963 259.793854,243.197327 
	C258.453430,243.109894 257.466492,242.990417 256.479980,242.993500 
	C254.819656,242.998688 253.159576,243.081711 250.561966,243.139755 
M254.948135,238.709351 
	C255.295593,237.970001 256.141937,236.864441 255.910919,236.549759 
	C254.192459,234.208817 249.322723,235.322021 248.021149,238.269592 
	C248.263153,238.448608 248.501709,238.776520 248.753586,238.787048 
	C250.537109,238.861847 252.323380,238.871582 254.948135,238.709351 
z"/>
<path fill="#F8F8F8" opacity="1.000000" stroke="none" 
	d="
M183.559052,212.674438 
	C184.980621,213.198883 186.344681,213.640167 187.562820,213.384918 
	C192.092834,212.435745 196.528061,210.854355 201.093369,210.324432 
	C203.622665,210.030823 206.339401,211.351898 209.477448,212.059158 
	C204.316345,216.849350 199.504761,220.681625 195.504776,225.227936 
	C192.299316,228.871216 189.669815,231.513275 184.071701,231.861404 
	C178.541733,232.205292 173.150681,235.392914 167.783539,237.544647 
	C163.774689,239.151825 159.908096,239.876053 155.516129,237.376083 
	C162.975388,224.666870 173.779495,213.345581 171.038910,196.995239 
	C176.760269,197.068497 181.163773,202.614761 183.559052,212.674438 
z"/>
<path fill="#F9F9F9" opacity="1.000000" stroke="none" 
	d="
M321.569550,210.537842 
	C323.147461,203.632416 326.892700,199.145309 333.625031,196.642181 
	C330.545105,213.313553 340.969452,224.555588 348.795715,237.145309 
	C345.170624,239.917221 341.515961,239.653320 337.927856,238.159378 
	C330.620300,235.116760 323.795288,230.501099 315.251373,231.793060 
	C314.650208,231.883972 313.770813,231.196579 313.258209,230.648880 
	C307.639008,224.645081 302.067047,218.597031 296.167084,212.220383 
	C304.169830,207.693939 311.919708,211.598419 320.084290,215.146027 
	C320.564545,213.634262 320.998657,212.267868 321.569550,210.537842 
z"/>
<path fill="#DDDDDD" opacity="1.000000" stroke="none" 
	d="
M240.791443,220.897720 
	C242.196640,221.849411 243.231628,222.690155 244.695694,223.879456 
	C240.562363,224.084106 237.323410,224.244461 233.290817,224.444122 
	C233.326721,223.699982 233.190643,221.412354 233.478775,221.357605 
	C235.747192,220.926636 238.096695,220.922409 240.791443,220.897720 
z"/>
<path fill="#DEDEDE" opacity="1.000000" stroke="none" 
	d="
M270.651978,224.689117 
	C266.999634,224.452927 263.672180,223.945755 259.812958,223.357544 
	C261.358093,219.992172 264.775482,220.666992 267.496796,220.537735 
	C269.711029,220.432571 271.927002,221.242447 270.651978,224.689117 
z"/>
<path fill="#0F0F0F" opacity="1.000000" stroke="none" 
	d="
M254.873749,192.854904 
	C250.412689,192.854904 246.431305,192.854904 242.449936,192.854904 
	C242.284409,192.334366 242.118866,191.813828 241.953339,191.293304 
	C245.096451,188.819260 248.239563,186.345230 251.646118,183.663834 
	C255.195328,186.300659 258.551025,188.793747 261.906708,191.286819 
	C261.749969,191.809509 261.593231,192.332214 261.436493,192.854904 
	C259.408813,192.854904 257.381134,192.854904 254.873749,192.854904 
z"/>
<path fill="#121212" opacity="1.000000" stroke="none" 
	d="
M251.030670,243.135864 
	C253.159576,243.081711 254.819656,242.998688 256.479980,242.993500 
	C257.466492,242.990417 258.453430,243.109894 259.793854,243.197327 
	C258.676514,246.802963 256.296326,249.581116 252.924652,249.196716 
	C249.607193,248.818497 246.508087,246.525009 243.313156,245.071915 
	C243.528015,244.427856 243.742874,243.783813 243.957733,243.139755 
	C246.159149,243.139755 248.360550,243.139755 251.030670,243.135864 
z"/>
<path fill="#2B2B2B" opacity="1.000000" stroke="none" 
	d="
M254.528442,238.805695 
	C252.323380,238.871582 250.537109,238.861847 248.753586,238.787048 
	C248.501709,238.776520 248.263153,238.448608 248.021149,238.269592 
	C249.322723,235.322021 254.192459,234.208817 255.910919,236.549759 
	C256.141937,236.864441 255.295593,237.970001 254.528442,238.805695 
z"/>
</svg>